<?xml version="1.0" standalone="no"?>
<!DOCTYPE svg PUBLIC "-//W3C//DTD SVG 20010904//EN"
 "http://www.w3.org/TR/2001/REC-SVG-20010904/DTD/svg10.dtd">
<svg version="1.0" xmlns="http://www.w3.org/2000/svg"
 width="1024.000000pt" height="1024.000000pt" viewBox="0 0 1024.000000 1024.000000"
 preserveAspectRatio="xMidYMid meet">

<g transform="translate(0.000000,1024.000000) scale(0.100000,-0.100000)"
fill="#000000" stroke="none">
<path d="M6421 9751 c-15 -27 10 -47 38 -31 24 12 26 21 9 38 -17 17 -36 15
-47 -7z"/>
<path d="M6683 9754 c-7 -20 11 -38 31 -31 23 9 20 34 -5 40 -13 3 -22 0 -26
-9z"/>
<path d="M6973 9763 c-17 -6 -16 -30 1 -36 16 -6 36 11 36 30 0 13 -15 16 -37
6z"/>
<path d="M7234 9756 c-8 -22 -2 -27 16 -16 12 7 12 12 3 21 -10 10 -14 9 -19
-5z"/>
<path d="M5726 9745 c-3 -9 3 -19 15 -25 15 -9 21 -7 26 6 3 9 0 20 -8 25 -20
12 -26 11 -33 -6z"/>
<path d="M5993 9744 c-3 -8 2 -23 11 -32 15 -15 18 -15 26 -2 5 8 10 23 10 33
0 22 -38 23 -47 1z"/>
<path d="M2268 9728 c-202 -51 -369 -200 -445 -396 -34 -89 -43 -262 -19 -366
34 -143 123 -269 251 -355 95 -63 163 -88 275 -101 164 -19 311 19 435 113
125 93 235 280 235 397 0 25 5 51 12 58 8 8 52 12 133 12 113 0 323 14 373 25
12 3 22 10 22 15 0 26 -62 33 -292 31 l-238 -1 0 65 c0 111 -67 245 -174 350
-59 57 -179 124 -271 151 -81 23 -210 24 -297 2z m283 -64 c67 -19 168 -74
227 -122 85 -70 161 -199 177 -302 3 -25 9 -53 11 -62 5 -16 -3 -18 -79 -18
-46 0 -136 -9 -198 -19 -63 -11 -150 -23 -194 -27 -44 -3 -83 -8 -87 -11 -4
-2 -2 -15 5 -30 l11 -26 111 6 c60 3 126 11 145 16 19 6 90 14 157 17 l123 7
-6 -34 c-22 -125 -87 -252 -174 -340 -98 -99 -223 -149 -376 -149 -74 0 -200
27 -256 56 -91 46 -197 154 -247 251 -73 144 -68 379 12 512 62 103 185 217
274 252 103 41 266 52 364 23z"/>
<path d="M6203 9713 c9 -9 19 -14 23 -11 10 10 -6 28 -24 28 -15 0 -15 -1 1
-17z"/>
<path d="M3545 9615 c-57 -27 -82 -48 -108 -87 -12 -19 -26 -28 -45 -28 -45 0
-100 -19 -132 -46 -41 -35 -42 -84 -1 -125 l29 -29 144 -1 c856 -6 798 -10
813 52 5 21 0 34 -26 63 -41 47 -71 62 -139 69 -31 3 -75 15 -98 27 -35 18
-52 21 -96 16 l-53 -7 -41 49 c-64 76 -154 93 -247 47z m166 -48 c19 -12 44
-43 57 -70 12 -26 26 -47 31 -47 4 0 20 9 34 20 34 27 76 25 116 -4 21 -16 54
-27 90 -32 31 -3 68 -13 83 -22 27 -16 53 -58 40 -65 -4 -3 -200 -2 -437 2
l-430 6 -3 26 c-2 15 4 33 12 42 21 20 94 33 109 18 18 -18 25 -13 37 24 11
34 57 77 115 108 44 24 106 21 146 -6z"/>
<path d="M6568 9623 c-22 -6 -23 -17 -3 -33 12 -10 18 -10 30 0 8 7 15 19 15
26 0 14 -10 16 -42 7z"/>
<path d="M6833 9623 c-18 -7 -16 -32 2 -39 18 -7 45 12 45 32 0 14 -23 17 -47
7z"/>
<path d="M7083 9614 c-3 -8 -1 -20 5 -26 16 -16 47 -5 50 20 3 18 -1 22 -23
22 -14 0 -28 -7 -32 -16z"/>
<path d="M7382 9618 c-7 -7 -12 -18 -12 -25 0 -18 29 -16 37 3 8 21 -10 37
-25 22z"/>
<path d="M6313 9613 c-18 -7 -16 -43 2 -43 18 0 31 28 19 39 -5 5 -15 6 -21 4z"/>
<path d="M5860 9594 c0 -9 5 -14 12 -12 18 6 21 28 4 28 -9 0 -16 -7 -16 -16z"/>
<path d="M6100 9590 c0 -5 5 -10 10 -10 6 0 10 5 10 10 0 6 -4 10 -10 10 -5 0
-10 -4 -10 -10z"/>
<path d="M5768 9522 c-22 -4 -24 -42 -3 -42 16 0 30 23 23 38 -1 4 -11 6 -20
4z"/>
<path d="M4514 9475 c-19 -15 -19 -15 0 -30 41 -32 96 -6 66 30 -16 19 -41 19
-66 0z"/>
<path d="M6420 9474 c-11 -12 -10 -18 3 -32 16 -15 18 -15 38 5 12 11 18 26
15 32 -10 16 -41 13 -56 -5z"/>
<path d="M6686 9475 c-19 -19 -15 -30 13 -38 26 -6 44 7 39 29 -4 25 -31 29
-52 9z"/>
<path d="M6954 9475 c-7 -18 12 -45 32 -45 16 0 37 37 29 50 -10 16 -55 12
-61 -5z"/>
<path d="M5970 9466 c0 -7 7 -19 15 -26 19 -15 47 4 38 26 -7 18 -53 19 -53 0z"/>
<path d="M7220 9461 c0 -23 19 -32 43 -19 28 15 21 38 -13 38 -23 0 -30 -5
-30 -19z"/>
<path d="M6189 9459 c-11 -6 -11 -11 -2 -20 12 -12 43 -6 43 10 0 14 -25 20
-41 10z"/>
<path d="M7855 9426 c-39 -12 -105 -46 -147 -74 -127 -85 -181 -164 -212 -303
-5 -24 -10 -26 -77 -32 -90 -8 -164 -42 -290 -135 -83 -61 -104 -72 -156 -81
-112 -18 -172 -65 -269 -211 -47 -70 -48 -73 -29 -86 17 -12 239 -14 1520 -13
825 1 1510 3 1522 6 26 6 39 33 21 45 -7 4 -35 8 -63 8 -27 0 -67 3 -88 6 -35
6 -38 10 -52 58 -23 76 -70 152 -118 187 -50 37 -128 74 -177 83 -32 5 -113
-4 -165 -19 -17 -5 -23 2 -38 45 -25 71 -121 171 -201 210 -95 46 -246 62
-318 35 -9 -4 -20 7 -30 27 -99 208 -394 322 -633 244z m297 -65 c79 -27 114
-47 166 -94 46 -43 102 -113 102 -128 0 -5 -24 -22 -53 -38 -66 -38 -117 -91
-152 -158 -47 -92 -16 -126 39 -41 62 96 133 146 261 183 156 46 334 -23 424
-163 40 -62 47 -101 24 -127 -10 -12 -26 -24 -35 -28 -26 -9 -34 -55 -14 -75
14 -15 19 -13 51 25 20 23 60 54 90 69 50 24 63 26 148 22 75 -3 100 -8 130
-27 69 -43 141 -161 124 -205 -6 -14 -136 -16 -1342 -16 -734 0 -1335 2 -1335
5 0 16 43 87 69 112 45 45 96 66 148 60 42 -4 47 -2 102 48 75 70 209 151 272
164 106 23 198 9 273 -43 60 -42 76 -45 76 -14 0 30 -72 95 -121 110 l-41 12
6 43 c16 122 141 250 292 302 80 27 219 28 296 2z"/>
<path d="M6563 9334 c-3 -8 -1 -20 5 -26 16 -16 42 -2 42 22 0 24 -38 28 -47
4z"/>
<path d="M6820 9332 c0 -11 7 -25 15 -32 21 -18 47 -5 43 22 -4 31 -58 40 -58
10z"/>
<path d="M7080 9321 c0 -10 7 -25 16 -32 14 -11 19 -10 35 10 23 29 17 41 -22
41 -22 0 -29 -5 -29 -19z"/>
<path d="M5095 9154 c-175 -155 -204 -184 -221 -217 -15 -28 -20 -29 -69 -11
-19 7 -76 -37 -90 -69 -15 -35 -8 -51 25 -60 18 -5 20 0 20 44 0 53 17 72 45
49 21 -17 19 -37 -7 -72 -11 -17 -25 -51 -30 -76 -4 -25 -10 -47 -12 -49 -2
-2 -26 9 -53 26 -79 49 -164 64 -328 57 -161 -6 -251 -17 -282 -34 -12 -7 -31
-12 -42 -12 -25 0 -26 -6 -6 -53 18 -44 24 -327 7 -368 -8 -20 -20 -28 -49
-32 -22 -4 -49 -17 -62 -31 -20 -21 -22 -31 -16 -74 6 -46 5 -50 -17 -56 -13
-3 -37 -6 -54 -6 -37 0 -58 -21 -50 -48 5 -16 -17 -37 -121 -115 -121 -90
-152 -108 -230 -137 -19 -7 -33 -19 -33 -29 0 -9 51 -73 114 -141 l113 -125
-50 -13 c-56 -14 -82 -33 -103 -73 l-13 -27 -253 -5 c-271 -5 -315 -11 -426
-64 -75 -35 -173 -135 -211 -217 -17 -35 -35 -94 -41 -132 -6 -43 -10 -517
-10 -1239 0 -755 -4 -1165 -10 -1155 -5 8 -30 71 -55 140 -25 69 -95 226 -154
349 l-109 225 39 28 c80 58 152 188 169 305 22 161 -34 338 -139 436 -66 62
-91 60 -91 -6 0 -11 -7 -28 -16 -38 -29 -32 -77 3 -114 81 -13 28 -27 50 -32
50 -4 0 -8 6 -8 13 0 19 -193 127 -294 165 -118 44 -233 55 -263 25 -40 -40
-38 -212 3 -368 9 -33 19 -73 22 -89 4 -26 3 -28 -19 -21 -105 32 -279 190
-331 301 -27 57 -30 73 -26 128 7 77 22 102 72 118 52 17 78 55 83 120 13 168
-203 201 -247 38 -19 -72 0 -125 53 -143 19 -7 20 -29 3 -102 l-11 -50 -59
140 c-65 153 -80 198 -100 293 l-14 63 40 26 c48 32 68 69 68 125 0 77 -66
148 -136 148 -36 0 -88 -32 -118 -73 -16 -21 -21 -43 -21 -87 0 -51 4 -63 30
-90 16 -17 43 -34 60 -38 27 -8 31 -14 42 -68 20 -104 62 -215 146 -384 100
-201 97 -192 54 -152 -81 78 -217 36 -217 -67 0 -20 9 -55 19 -78 25 -55 68
-77 132 -70 63 8 85 23 112 77 l23 46 65 -75 c70 -82 198 -171 277 -193 l44
-13 37 -105 c75 -213 164 -331 299 -397 75 -37 78 -38 188 -37 l112 0 106
-215 c58 -119 106 -227 106 -241 0 -21 -15 -9 -112 86 -123 121 -165 155 -279
232 -123 82 -397 218 -454 226 -17 2 -70 15 -120 30 -166 47 -292 68 -462 73
-190 7 -227 2 -250 -34 -14 -21 -15 -33 -6 -77 16 -75 107 -253 178 -348 65
-86 234 -265 317 -335 l47 -40 -11 -67 c-11 -65 -12 -67 -37 -62 -115 23 -162
28 -176 16 -18 -15 -18 -57 -1 -170 8 -53 9 -86 3 -89 -5 -2 -46 4 -91 13 -44
10 -108 16 -141 14 -57 -3 -60 -4 -63 -30 -2 -14 10 -82 27 -150 37 -150 98
-279 172 -362 42 -47 50 -60 38 -67 -52 -29 -144 -106 -178 -149 -47 -59 -44
-84 11 -95 18 -4 103 -30 188 -57 132 -42 170 -50 260 -55 116 -6 180 6 274
54 l50 25 34 -37 c32 -34 34 -40 27 -83 -16 -120 -8 -109 -91 -114 -80 -5
-103 -18 -124 -68 -11 -27 -16 -29 -88 -34 -233 -19 -393 -37 -435 -52 -26 -9
-68 -35 -93 -57 -36 -33 -46 -50 -50 -82 -6 -52 21 -97 76 -125 60 -30 65 -21
20 30 -50 57 -54 103 -13 145 58 57 116 69 387 79 143 6 161 5 179 -11 17 -16
47 -18 343 -18 209 0 324 -4 324 -10 0 -5 -17 -35 -38 -65 l-37 -55 -295 -8
c-194 -5 -357 -3 -476 4 -174 11 -288 7 -299 -11 -3 -5 6 -17 20 -28 22 -17
47 -20 257 -25 128 -4 352 -3 498 1 146 4 266 7 268 6 1 0 -20 -35 -47 -76
l-49 -75 -393 3 c-277 2 -441 8 -552 20 -182 19 -250 11 -317 -37 -88 -64 -46
-184 84 -245 58 -27 124 -30 286 -14 52 5 165 7 251 3 l157 -6 -29 -25 c-41
-34 -62 -77 -70 -147 -7 -56 -11 -63 -66 -116 -51 -49 -67 -58 -118 -69 -107
-21 -186 -68 -249 -148 -58 -73 -21 -188 74 -230 26 -12 85 -17 232 -21 168
-5 200 -9 214 -23 17 -16 15 -20 -33 -71 -86 -91 -101 -144 -63 -221 24 -48
52 -81 101 -118 74 -57 69 -56 721 -64 331 -4 613 -10 627 -14 24 -6 26 -10
23 -56 -4 -58 23 -106 76 -137 32 -19 56 -20 471 -20 338 0 445 3 476 13 l40
14 -76 12 c-103 16 -243 23 -572 29 -152 3 -288 10 -302 15 -13 5 -32 21 -41
35 -16 25 -16 27 5 55 30 41 27 53 -18 78 -54 30 -75 31 -741 36 -634 4 -610
2 -686 68 -39 35 -73 98 -74 136 0 36 37 99 76 129 67 51 75 62 72 96 -2 26
-10 36 -42 51 -32 16 -69 19 -245 24 -220 5 -246 10 -277 57 -15 24 -15 29 0
69 24 63 76 112 138 131 56 16 258 20 451 8 l107 -6 0 -82 c0 -60 7 -107 26
-171 15 -49 28 -100 30 -114 3 -16 0 -14 -6 8 -12 38 -23 43 -15 7 3 -14 8
-37 11 -52 l5 -28 -21 23 c-17 18 -20 30 -15 55 6 24 4 29 -5 21 -15 -15 -25
-87 -15 -111 7 -17 7 -17 14 0 6 16 10 14 41 -14 19 -17 65 -58 103 -90 l67
-59 -62 4 c-35 2 -75 7 -91 11 -27 7 -38 -7 -16 -21 42 -25 216 -30 1789 -51
497 -6 470 -6 1947 1 562 2 1034 1 1050 -4 21 -6 6 -9 -62 -11 -81 -2 -74 -3
70 -12 111 -7 254 -6 465 2 466 18 1007 32 1510 40 279 5 465 12 480 18 33 15
179 159 191 190 14 39 12 93 -5 87 -8 -3 -15 -26 -18 -60 -3 -30 -11 -60 -18
-67 -10 -10 -12 -8 -7 6 4 10 3 16 -2 13 -5 -3 -11 4 -15 17 -3 12 -1 23 4 25
5 2 6 10 3 19 -4 11 -2 14 5 9 8 -5 9 -1 4 15 -7 19 -5 49 14 174 l4 31 98 12
c53 7 180 12 283 11 102 -1 195 2 207 5 24 8 28 26 10 44 -18 18 -289 16 -358
-3 -30 -8 -94 -18 -142 -21 -100 -8 -105 -4 -94 70 l7 43 118 6 c64 3 146 11
182 18 46 8 94 9 171 2 92 -9 115 -14 154 -39 63 -39 89 -75 88 -124 -2 -45
-22 -82 -61 -107 -23 -15 -59 -19 -234 -23 -191 -5 -210 -7 -236 -26 -18 -13
-29 -32 -31 -51 -3 -26 8 -42 67 -107 68 -72 71 -78 71 -124 0 -43 -5 -55 -41
-96 -54 -61 -86 -77 -173 -83 -39 -2 -339 -5 -666 -6 l-595 -2 -55 -27 c-30
-15 -70 -41 -87 -58 l-33 -31 26 -52 c25 -48 26 -56 15 -96 -19 -71 -62 -116
-158 -163 l-86 -43 -721 0 c-397 0 -1151 2 -1676 5 l-955 5 -40 22 c-88 49
-115 91 -115 181 0 48 -4 64 -16 69 -27 10 -39 -15 -39 -85 0 -114 50 -183
165 -229 43 -17 132 -18 1710 -17 1826 1 1719 -2 1841 60 71 36 145 111 159
163 11 42 0 111 -22 139 -8 9 -5 19 13 38 57 62 22 59 749 64 610 5 668 6 704
23 133 59 194 179 138 268 -11 19 -50 62 -86 97 -36 35 -66 69 -66 76 0 21 34
26 195 26 267 1 317 16 376 108 51 81 28 176 -58 235 -50 34 -75 43 -175 62
-46 8 -95 20 -111 26 -26 11 -93 107 -133 191 -10 21 -22 38 -26 38 -5 0 -44
24 -86 53 l-77 52 420 5 c411 5 421 5 462 27 78 42 118 122 93 183 -30 72
-146 104 -322 90 -62 -5 -324 -10 -581 -12 l-469 -3 -39 70 -38 70 516 -3
c311 -1 537 1 569 7 30 6 61 8 69 4 14 -5 14 -8 0 -30 -9 -14 -14 -28 -10 -31
11 -11 59 22 82 57 61 91 -7 178 -187 237 -46 15 -90 18 -262 19 l-207 0 -30
42 c-41 57 -73 76 -150 88 -63 10 -67 13 -78 46 -21 61 -16 100 21 143 l34 40
69 -31 c94 -43 136 -53 228 -53 99 0 173 16 355 74 78 25 150 46 161 46 15 0
19 7 19 31 0 26 -12 44 -67 96 -37 36 -91 79 -120 95 l-52 29 70 87 c39 48 86
119 104 157 38 79 88 269 83 318 l-3 32 -92 3 c-61 2 -113 -3 -154 -13 -34 -9
-63 -15 -64 -13 -2 2 1 54 6 116 6 76 5 120 -1 133 -13 23 -53 25 -130 4 -30
-8 -56 -13 -57 -11 -2 2 -8 31 -14 65 l-11 62 43 37 c222 187 411 439 480 641
46 134 23 157 -161 154 -226 -3 -462 -46 -686 -126 -166 -60 -196 -74 -339
-160 -185 -111 -258 -172 -479 -408 -66 -69 -81 -80 -83 -63 -2 12 14 47 39
85 24 35 61 105 83 154 76 173 347 705 359 705 7 0 62 25 123 55 61 31 123 56
139 56 16 1 56 -9 89 -21 44 -17 82 -23 145 -23 197 0 368 88 481 248 30 42
72 97 94 122 l40 45 -22 17 c-15 13 -58 21 -157 31 -229 22 -346 2 -491 -83
-103 -61 -158 -119 -185 -195 l-23 -62 -99 -57 c-54 -30 -101 -53 -105 -50 -6
7 21 73 123 302 78 177 157 392 193 526 l25 96 48 13 c94 24 177 125 214 260
29 104 24 306 -10 434 -40 151 -52 156 -142 64 -90 -92 -136 -155 -182 -249
-53 -110 -72 -187 -72 -296 0 -101 11 -146 46 -184 13 -14 24 -34 24 -46 0
-31 -32 -130 -111 -340 -39 -103 -83 -222 -99 -263 -36 -99 -101 -253 -112
-264 -4 -6 -8 43 -8 107 0 68 -9 176 -21 256 l-21 138 25 25 c14 14 38 50 54
79 59 113 25 296 -86 464 -55 84 -167 205 -189 205 -14 0 -59 -55 -81 -99 -67
-132 -67 -372 -1 -502 38 -74 142 -169 184 -169 8 0 18 -5 21 -10 18 -30 36
-197 41 -385 l6 -210 -30 -85 c-16 -47 -77 -183 -136 -303 -58 -121 -106 -221
-106 -224 0 -3 -31 -68 -70 -145 -47 -95 -70 -152 -70 -176 0 -19 -3 -32 -7
-28 -5 4 -10 519 -13 1144 l-5 1137 -23 59 c-12 33 -33 78 -47 101 -34 59
-122 136 -190 169 -110 52 -145 56 -465 56 l-297 0 -33 41 c-31 39 -86 73
-102 63 -18 -11 -5 22 32 84 47 79 63 98 113 136 39 30 48 56 20 56 -29 0
-114 54 -173 109 -30 28 -78 65 -106 81 -28 16 -56 41 -62 55 -9 20 -17 24
-35 20 -15 -4 -28 -1 -37 10 -12 14 -10 15 14 6 43 -17 31 7 -20 37 -42 25
-45 29 -39 60 9 48 -11 100 -45 117 -53 28 -60 22 -60 -50 l0 -65 -40 0 -40 0
25 67 c22 58 24 73 16 122 -5 31 -15 110 -22 177 -11 108 -11 124 4 154 10 18
17 42 17 52 0 17 -6 19 -42 17 -24 -1 -52 2 -63 8 -29 16 -166 43 -215 43 -72
0 -183 -21 -248 -47 -47 -18 -66 -22 -76 -14 -10 9 -15 7 -19 -8 -5 -20 -54
-57 -63 -48 -3 3 -6 27 -7 54 -2 48 -2 48 31 49 18 0 37 6 41 13 5 8 17 11 30
6 26 -8 26 -4 2 44 -23 45 -39 59 -79 71 -24 6 -32 5 -37 -7 -3 -9 -8 -13 -12
-10 -3 4 -12 2 -20 -4 -10 -9 -20 -4 -46 26 -96 111 -360 345 -389 345 -16 0
-65 -37 -153 -116z m170 26 c3 -5 63 -57 133 -116 142 -118 211 -198 241 -280
35 -91 24 -214 -21 -251 -12 -10 -23 -10 -49 -2 -46 16 -46 16 -20 43 53 56
33 160 -59 300 -34 52 -69 89 -116 125 -89 68 -102 68 -62 2 l22 -36 -31 23
c-18 13 -35 27 -39 33 -3 6 -19 0 -37 -14 -18 -13 -69 -44 -114 -70 -141 -83
-209 -179 -201 -285 4 -44 10 -60 31 -78 30 -26 26 -34 -19 -34 -24 0 -39 8
-58 31 -35 41 -41 71 -28 142 24 129 73 193 297 389 99 86 118 97 130 78z
m100 -228 c-3 -3 -11 0 -18 7 -9 10 -8 11 6 5 10 -3 15 -9 12 -12z m-59 -41
c44 -20 119 -82 134 -112 8 -13 2 -27 -25 -59 l-35 -42 0 32 c0 38 -19 77 -55
110 -21 20 -37 25 -77 25 -45 0 -53 -3 -86 -41 -53 -59 -72 -83 -72 -94 0 -5
-18 -26 -40 -46 -48 -44 -56 -74 -12 -47 15 9 41 30 59 46 l31 29 12 -22 c7
-13 16 -36 20 -52 7 -24 5 -31 -15 -44 -34 -22 -99 -22 -124 0 -14 13 -21 15
-21 6 0 -10 -3 -10 -15 0 -9 7 -15 29 -15 52 0 32 7 47 45 87 25 26 45 53 45
58 0 24 47 66 109 98 77 40 83 40 137 16z m420 -64 c4 -3 4 -14 0 -23 -5 -13
-9 -14 -21 -4 -19 16 -19 39 0 36 8 -1 17 -5 21 -9z m-432 -58 c35 -41 33 -72
-8 -117 l-34 -37 -36 38 c-44 47 -46 80 -9 119 34 36 55 35 87 -3z m200 -78
c24 -42 23 -72 -4 -116 -21 -35 -24 -36 -63 -30 -22 4 -55 14 -74 21 -28 12
-32 17 -23 32 31 54 37 56 113 37 36 -9 34 1 -3 20 l-31 16 23 29 c28 35 37
33 62 -9z m-972 8 c107 -23 210 -90 268 -175 l30 -42 -40 -36 c-22 -20 -46
-36 -54 -36 -7 0 -30 37 -50 83 -46 101 -79 129 -167 135 -60 4 -164 -7 -141
-15 8 -3 -7 -19 -37 -39 -28 -19 -51 -38 -51 -42 0 -4 -13 -22 -30 -40 -37
-42 -55 -123 -45 -206 9 -83 28 -123 86 -181 44 -46 48 -53 35 -70 -13 -18
-15 -17 -60 20 -62 51 -100 107 -122 181 -14 51 -16 84 -10 239 4 99 10 183
14 187 13 13 201 46 264 47 31 1 81 -4 110 -10z m1718 -5 c38 -8 79 -23 91
-32 29 -24 52 -156 53 -312 1 -117 -1 -128 -26 -176 -26 -49 -85 -111 -128
-134 -16 -9 -25 -9 -35 0 -12 10 -10 16 13 35 16 13 45 56 65 95 30 58 37 83
37 129 0 65 -22 160 -46 197 -23 34 -94 74 -168 94 -59 17 -60 17 -29 24 18 4
37 5 42 2 16 -10 22 11 6 24 -17 14 -106 -1 -175 -31 -49 -22 -120 -85 -120
-107 0 -8 -8 -27 -17 -43 -20 -34 -50 -38 -84 -10 -21 17 -22 21 -10 49 15 35
85 105 148 146 95 63 243 82 383 50z m-1705 -174 c80 -26 134 -133 91 -178
-11 -11 -16 -6 -30 30 -32 78 -87 118 -163 118 -69 0 -113 -54 -113 -138 0
-46 33 -81 95 -101 60 -20 69 -30 48 -54 -10 -10 -39 -30 -65 -42 l-48 -23 0
34 c0 39 -2 40 -36 17 -35 -22 -46 -4 -39 62 5 50 5 59 5 125 1 75 38 133 94
148 46 12 126 13 161 2z m735 -9 c15 -29 13 -31 -24 -31 -39 0 -53 14 -36 35
17 21 47 19 60 -4z m869 4 c40 -20 78 -69 93 -116 10 -34 9 -44 -5 -69 -15
-25 -15 -29 -1 -41 22 -18 15 -115 -10 -149 -14 -19 -17 -20 -11 -5 15 40 11
60 -14 63 -15 2 -28 -3 -33 -12 -5 -9 -21 -16 -35 -16 -30 0 -95 38 -91 52 2
6 37 23 78 38 l75 27 -3 49 c-7 111 -37 150 -113 147 -54 -1 -90 -19 -115 -58
-23 -35 -12 -70 27 -84 24 -8 30 -15 27 -33 -5 -34 -33 -33 -79 4 -75 60 -80
108 -16 166 52 48 168 67 226 37z m-976 -21 c13 -13 -24 -64 -51 -70 -57 -12
-180 -58 -252 -94 -155 -78 -328 -232 -415 -370 -113 -179 -169 -335 -182
-506 l-6 -82 -33 1 c-31 1 -34 4 -34 30 0 69 33 245 61 325 62 177 129 287
255 421 181 192 432 330 635 350 9 0 18 -2 22 -5z m332 -30 c173 -49 391 -187
532 -337 103 -111 200 -287 248 -454 23 -79 48 -276 38 -295 -2 -5 -19 -8 -36
-8 l-32 0 -2 88 c-3 150 -74 362 -166 497 -137 201 -358 369 -557 424 -41 12
-85 21 -98 21 -29 0 -82 51 -82 80 0 25 9 24 155 -16z m-1002 -25 l25 -11 -41
-64 c-34 -53 -43 -62 -58 -53 -27 14 -45 83 -31 114 9 20 19 25 46 25 19 0 46
-5 59 -11z m1607 -9 c23 -12 35 -62 21 -88 -6 -11 -22 -27 -36 -36 -24 -16
-26 -16 -31 1 -19 58 -29 74 -50 79 -32 8 -30 17 9 37 38 19 61 21 87 7z
m-816 -29 c27 -18 55 -55 56 -73 0 -4 -22 0 -49 8 -36 10 -56 11 -76 4 -62
-23 -70 -8 -24 45 35 40 52 43 93 16z m-739 -78 c-8 -47 -20 -60 -39 -44 -12
10 -11 17 7 46 29 45 41 44 32 -2z m516 -66 c-22 -39 -44 -71 -50 -70 -6 2 -8
-3 -6 -10 3 -6 -4 -27 -15 -44 -35 -58 -82 -38 -129 54 -11 23 -21 47 -21 52
0 11 121 71 205 101 66 25 69 12 16 -83z m459 58 c167 -65 247 -116 370 -236
74 -71 161 -185 148 -193 -2 -1 -23 -11 -48 -21 -25 -10 -72 -36 -105 -57 -66
-44 -65 -44 -105 34 -19 36 -19 36 2 65 12 15 44 52 72 81 50 52 50 53 21 47
-18 -4 -51 -29 -85 -65 l-55 -58 -27 33 c-16 18 -28 35 -28 39 0 3 23 39 50
79 49 72 59 97 41 97 -7 0 -39 -38 -128 -149 -2 -3 -17 8 -33 24 -28 27 -29
30 -15 49 28 39 66 118 62 129 -2 7 -24 -18 -48 -55 -24 -37 -46 -68 -49 -68
-3 0 -33 42 -67 94 -64 95 -105 183 -80 173 6 -2 55 -21 107 -42z m-198 -46
c26 -7 43 -19 53 -39 8 -16 15 -32 15 -35 0 -3 -57 -4 -127 -3 l-128 3 -3 26
c-2 14 3 31 10 36 25 21 125 28 180 12z m-492 -62 c0 -26 33 -92 62 -124 l20
-22 -26 -26 c-33 -32 -51 -24 -104 46 -20 27 -38 45 -40 40 -3 -10 37 -91 63
-126 13 -18 12 -23 -11 -53 -14 -17 -31 -32 -39 -32 -7 0 -35 20 -63 45 -27
25 -53 45 -56 45 -11 0 10 -33 53 -82 45 -50 47 -71 12 -116 l-18 -24 -106 54
-106 53 30 50 c17 28 59 79 93 114 60 62 209 181 227 181 5 0 9 -10 9 -23z
m-735 -28 c10 -30 -2 -37 -65 -40 -52 -3 -55 -2 -55 21 0 21 6 26 40 31 68 10
73 10 80 -12z m1346 -46 c39 -36 77 -93 61 -93 -14 0 -123 116 -116 123 11 10
10 10 55 -30z m1085 10 c-10 -10 -19 5 -10 18 6 11 8 11 12 0 2 -7 1 -15 -2
-18z m-1451 -32 c-18 -35 -7 -41 20 -11 10 11 34 24 54 30 47 13 152 13 187 0
27 -11 133 -97 166 -135 16 -18 26 -95 13 -95 -3 0 -32 14 -65 30 -33 17 -73
30 -89 30 -26 0 -30 4 -41 48 -21 83 -70 114 -70 44 0 -26 7 -45 20 -57 20
-18 28 -55 11 -55 -5 0 -14 14 -20 32 -6 17 -18 40 -27 50 -11 11 -15 27 -11
45 l5 28 -19 -24 c-27 -34 -24 -75 9 -112 25 -28 35 -32 83 -33 69 -2 169 -47
209 -93 51 -57 37 -69 -27 -24 -71 49 -150 71 -258 71 -91 0 -154 -23 -218
-80 l-37 -32 0 30 c0 56 118 122 217 122 45 0 46 0 28 20 -28 31 -99 27 -171
-10 -32 -16 -60 -30 -61 -30 -2 0 -3 15 -3 33 0 37 27 100 72 170 33 52 49 58
23 8z m1065 29 c0 -5 -2 -10 -4 -10 -3 0 -8 5 -11 10 -3 6 -1 10 4 10 6 0 11
-4 11 -10z m-1750 -35 c-7 -9 -15 -13 -17 -11 -7 7 7 26 19 26 6 0 6 -6 -2
-15z m-216 -69 c23 -13 52 -36 66 -50 20 -23 22 -30 12 -46 -6 -11 -9 -26 -6
-34 10 -25 -18 -30 -38 -6 -23 29 -24 54 0 46 10 -4 7 3 -10 18 -38 34 -111
48 -199 37 -39 -5 -78 -7 -85 -4 -20 8 -17 31 5 43 68 36 190 34 255 -4z
m2397 5 c10 -13 19 -27 19 -32 0 -6 -39 -7 -92 -3 -78 5 -103 2 -158 -15 -36
-11 -68 -21 -72 -21 -15 0 -8 18 18 43 40 40 98 57 187 54 69 -2 81 -5 98 -26z
m-1641 -141 c-4 -63 -6 -136 -3 -162 6 -47 5 -49 -41 -91 -42 -39 -46 -48 -46
-89 0 -25 9 -70 19 -100 l19 -56 -36 -23 c-60 -40 -77 -72 -77 -145 0 -59 -1
-64 -21 -64 -19 0 -23 8 -33 80 -9 58 -9 85 -1 100 9 16 7 39 -6 97 -20 92
-15 215 14 290 27 71 87 158 156 226 32 32 60 56 61 55 2 -2 -1 -55 -5 -118z
m731 23 c66 -83 142 -229 160 -307 10 -46 10 -75 0 -149 -7 -51 -16 -130 -21
-176 -9 -81 -23 -117 -41 -105 -5 3 -9 19 -9 36 0 75 -35 130 -119 185 -2 1 6
25 18 52 37 86 26 149 -35 206 -24 23 -34 40 -30 51 3 8 6 74 6 145 0 71 4
129 8 129 5 0 33 -30 63 -67z m-1578 17 c31 -15 127 -135 127 -158 0 -23 -20
-52 -35 -52 -8 0 -15 5 -15 11 0 8 -5 7 -15 -1 -13 -10 -28 -10 -80 5 -76 20
-105 15 -158 -26 -25 -21 -44 -28 -57 -24 -30 10 -24 33 17 71 52 48 119 66
210 58 65 -6 73 -5 73 10 0 11 -18 25 -46 38 -64 28 -157 27 -210 -2 -58 -32
-133 -109 -159 -163 l-24 -48 42 -82 c30 -57 56 -93 91 -121 l48 -41 119 1
c107 1 119 -1 119 -16 0 -12 -11 -20 -31 -24 -49 -9 -227 -7 -234 3 -3 5 -19
13 -37 16 -42 10 -109 79 -183 189 -32 48 -74 100 -92 115 -18 14 -33 31 -33
37 0 14 260 191 308 209 46 18 214 14 255 -5z m2617 -10 c20 -10 87 -57 149
-104 63 -47 118 -86 123 -86 13 0 9 -27 -6 -33 -7 -3 -48 -57 -90 -120 -123
-185 -162 -210 -346 -215 -128 -3 -158 4 -147 32 5 13 24 16 109 16 113 0 155
13 217 66 37 31 81 114 81 155 0 41 -49 127 -104 183 -59 60 -103 76 -215 76
-70 0 -84 7 -57 29 40 34 221 34 286 1z m-330 11 c0 -11 -66 -51 -86 -51 -17
0 -19 24 -1 38 23 18 87 28 87 13z m-1821 -136 c49 -26 95 -52 101 -60 9 -11
9 -27 1 -65 -6 -28 -11 -64 -11 -80 0 -35 1 -35 -84 -15 -36 8 -97 16 -136 18
-38 1 -70 2 -70 3 0 4 51 147 61 169 15 34 40 75 45 75 2 0 44 -20 93 -45z
m1554 -32 c36 -77 62 -152 55 -157 -3 -3 -268 -46 -280 -46 -5 0 -8 12 -8 28
0 15 -7 51 -14 80 l-14 52 41 24 c61 35 171 93 177 95 4 0 22 -34 43 -76z
m-828 45 c-2 -7 -6 -51 -9 -98 l-4 -85 20 25 c17 21 19 36 16 96 -4 82 -13 79
99 31 58 -24 75 -37 88 -63 21 -44 20 -44 -25 -22 -59 29 -112 18 -140 -29
-12 -20 -24 -48 -27 -64 -4 -23 0 -30 23 -42 75 -38 119 -30 171 32 21 25 22
25 23 5 1 -89 -62 -245 -121 -299 -40 -36 -98 -65 -130 -65 -10 0 -42 11 -71
23 -89 40 -146 122 -173 255 -21 98 -13 112 36 67 44 -39 47 -40 118 -23 42 9
51 15 51 33 0 42 -22 85 -55 105 -42 26 -64 25 -109 -5 -35 -24 -36 -24 -36
-3 0 33 37 84 74 102 19 9 55 19 80 22 l45 7 3 -83 c2 -56 7 -85 16 -88 9 -3
12 19 12 87 0 73 3 91 15 91 8 0 12 -6 10 -12z m1176 1 c84 3 141 -12 179 -47
36 -34 49 -79 25 -88 -11 -4 -27 4 -48 24 -50 48 -79 55 -145 36 -32 -9 -67
-17 -79 -18 -13 0 -23 -5 -23 -11 0 -5 -7 -2 -17 7 -22 23 -21 75 3 92 10 8
23 12 28 9 5 -4 39 -5 77 -4z m-2398 -133 c37 -8 75 -20 83 -26 25 -21 13 -90
-16 -90 -4 0 -15 18 -25 40 -10 22 -24 40 -31 40 -21 0 -65 -53 -60 -72 8 -33
-30 -20 -68 23 -42 45 -38 60 19 85 16 7 30 13 30 14 0 0 31 -6 68 -14z m1102
-8 c7 -7 2 -8 -15 -3 -14 4 -29 12 -35 17 -7 7 -2 8 15 3 14 -4 30 -12 35 -17z
m1425 -6 c20 -16 21 -21 10 -43 -38 -73 -73 -77 -112 -15 -16 24 -28 48 -28
54 0 10 28 17 81 21 15 0 37 -7 49 -17z m-166 -38 c-4 -26 -7 -54 -8 -62 -1
-21 102 -47 149 -38 35 7 101 61 123 101 20 38 25 4 6 -42 -13 -31 -35 -59
-63 -81 -42 -32 -46 -33 -129 -30 -63 2 -87 7 -93 18 -43 84 -52 152 -21 169
36 21 44 14 36 -35z m-2554 -24 c22 -33 52 -68 66 -77 31 -20 102 -19 159 1
26 9 41 11 44 4 7 -20 -36 -48 -91 -58 -98 -18 -152 8 -207 100 -18 31 -29 90
-16 90 2 0 23 -27 45 -60z m1239 36 c-11 -9 -90 -16 -84 -6 3 5 25 10 47 10
23 0 39 -2 37 -4z m381 -6 c0 -6 -20 -8 -55 -4 -45 6 -56 4 -61 -10 -3 -9 -11
-16 -17 -16 -5 0 -2 9 8 20 14 15 31 20 72 20 29 0 53 -5 53 -10z m-342 -19
c11 -7 11 -9 -2 -14 -19 -7 -46 1 -46 14 0 11 31 11 48 0z m282 -21 c0 -5 -11
-10 -25 -10 -14 0 -25 5 -25 10 0 6 11 10 25 10 14 0 25 -4 25 -10z m754 -67
c3 -21 6 -66 6 -99 l0 -62 -80 -7 c-70 -6 -214 1 -231 11 -13 7 4 54 20 55 14
1 13 2 -1 6 -14 3 -18 15 -18 49 0 24 3 44 8 45 14 1 277 36 283 38 4 0 9 -16
13 -36z m-1680 12 c81 -7 150 -15 151 -17 8 -8 23 -154 17 -160 -6 -6 -221
-11 -314 -7 -15 0 -18 10 -18 68 0 56 8 131 14 131 0 0 68 -7 150 -15z m-862
-127 c2 -6 18 -11 35 -10 18 0 36 -5 42 -12 8 -10 -8 -12 -74 -11 -47 1 -88 4
-91 8 -7 7 46 36 68 37 9 0 18 -5 20 -12z m3328 -10 l35 -22 -45 -7 c-25 -4
-67 -4 -93 -1 l-49 5 29 23 c36 29 78 30 123 2z m2195 -120 c25 -129 25 -286
1 -342 -9 -22 -14 -41 -12 -44 11 -10 -45 -101 -83 -135 -40 -36 -71 -48 -71
-27 0 5 7 27 15 47 8 21 21 65 29 98 7 33 29 119 48 190 42 153 58 235 46 235
-23 0 -113 -223 -178 -444 -16 -54 -31 -100 -33 -103 -2 -2 -10 4 -17 12 -20
24 -24 109 -10 203 17 114 85 251 170 345 34 37 65 67 69 67 4 0 16 -46 26
-102z m-4475 -38 c0 -50 4 -80 11 -80 5 0 7 -4 4 -10 -7 -11 -208 -13 -270 -2
-40 7 -40 8 -53 70 -8 35 -12 66 -9 69 3 3 61 9 129 14 68 6 128 11 133 14 6
2 20 4 33 4 21 1 22 -2 22 -79z m160 54 c0 -8 -4 -12 -10 -9 -5 3 -10 10 -10
16 0 5 5 9 10 9 6 0 10 -7 10 -16z m2625 3 c170 -3 196 -6 250 -27 120 -46
184 -109 225 -218 36 -95 41 -282 39 -1507 -2 -1263 1 -1207 -59 -1325 -36
-71 -103 -133 -187 -172 -60 -28 -75 -31 -171 -32 l-105 -1 -8 30 c-4 17 -9
46 -12 66 l-5 36 66 7 c37 3 83 10 102 16 61 17 143 73 182 125 77 100 72 23
73 1220 1 589 -2 1143 -5 1232 -7 151 -9 165 -37 226 -34 71 -85 127 -141 156
-58 29 -195 34 -379 15 -135 -14 -232 -15 -678 -9 -286 3 -581 9 -655 13
l-135 7 3 30 c1 17 3 46 5 65 2 19 6 40 9 45 6 9 1102 10 1623 2z m-3167 -3
c28 -6 32 -11 37 -53 3 -25 8 -56 11 -68 3 -15 -2 -23 -13 -26 -30 -9 -1029
-10 -1190 -2 -152 7 -153 7 -208 -19 -63 -32 -112 -86 -152 -172 l-28 -59 -6
-1170 c-3 -670 -2 -1202 4 -1244 27 -225 116 -301 380 -326 37 -4 67 -10 67
-13 0 -4 -7 -16 -15 -26 -8 -11 -15 -39 -15 -63 l0 -43 -77 0 c-156 1 -279 44
-360 127 -48 50 -65 79 -96 162 -20 55 -20 70 -18 1356 2 1452 -3 1358 75
1461 74 99 162 156 265 174 55 9 1295 13 1339 4z m908 -104 c52 -18 117 -7
160 25 19 15 36 25 38 24 10 -16 26 -64 26 -79 0 -39 -99 -90 -175 -90 -77 0
-165 50 -165 94 0 13 5 37 11 55 l11 31 29 -24 c16 -13 45 -30 65 -36z m-182
-78 c17 -38 24 -43 85 -61 36 -11 82 -23 102 -26 44 -8 148 17 196 46 41 26
43 13 4 -27 -54 -56 -161 -74 -294 -50 -49 9 -93 18 -98 22 -5 3 -9 -51 -9
-130 l0 -136 56 0 c126 0 183 71 140 175 l-14 33 51 -5 c71 -7 126 10 186 57
42 33 53 49 67 96 13 45 18 53 30 43 19 -16 17 -70 -6 -162 -24 -97 -50 -155
-95 -218 -19 -27 -35 -53 -35 -58 0 -6 -4 -13 -10 -16 -6 -4 -7 1 -3 11 5 14
3 15 -17 4 -12 -7 -36 -9 -55 -6 -30 6 -33 4 -28 -13 6 -22 50 -41 96 -41 78
0 197 224 222 418 4 28 10 52 15 52 21 0 183 -83 214 -110 95 -84 184 -270
171 -358 l-6 -42 34 4 c41 5 75 25 83 48 13 41 -82 215 -184 335 l-53 63 73 1
c360 5 865 5 1103 0 l290 -7 90 -34 c72 -27 100 -44 141 -85 28 -28 59 -66 68
-84 28 -53 37 -179 37 -527 0 -303 1 -336 19 -384 11 -30 23 -57 28 -62 21
-21 31 719 11 858 -6 43 -22 99 -35 126 -48 94 -138 173 -237 208 l-52 18 38
7 c103 20 229 -26 277 -102 61 -97 72 -228 59 -763 -9 -389 -14 -450 -39 -450
-9 0 -56 43 -105 96 -49 53 -99 100 -111 104 -12 5 -35 31 -51 57 -27 46 -28
54 -31 203 -4 166 7 251 38 285 17 19 24 37 21 61 0 6 -28 31 -60 57 -46 35
-68 62 -98 119 -35 68 -42 75 -100 103 -34 17 -75 45 -91 64 -27 33 -29 34
-87 28 -143 -13 -265 -47 -169 -47 22 0 45 5 50 10 8 8 15 6 24 -5 9 -10 31
-15 75 -15 77 0 108 -21 141 -97 13 -29 28 -53 33 -53 16 0 33 29 25 42 -4 7
2 5 14 -6 12 -10 26 -35 33 -55 6 -20 34 -59 62 -88 l50 -52 -12 -101 c-6 -55
-11 -167 -11 -248 0 -152 13 -229 46 -279 16 -26 16 -27 -8 -47 -14 -12 -31
-32 -38 -45 -7 -13 -30 -44 -53 -68 l-40 -44 40 -42 c23 -23 48 -55 56 -72 8
-16 26 -40 40 -53 l24 -23 -29 -54 c-16 -30 -33 -68 -38 -84 -5 -17 -4 -137 1
-273 l10 -243 -23 -17 c-75 -56 -75 -56 -80 -107 -9 -91 -63 -136 -177 -145
-217 -19 -289 -39 -322 -92 -24 -40 -56 -50 -184 -59 -49 -4 -103 -12 -119
-18 -26 -9 -27 -12 -10 -18 27 -11 221 -10 268 1 25 5 56 25 85 53 25 25 56
50 68 56 12 6 82 15 155 20 74 5 149 16 169 24 45 18 83 64 124 148 18 37 44
82 59 101 15 21 26 48 26 67 0 31 1 32 34 26 45 -9 55 9 23 43 -40 42 -46 72
-49 240 -2 133 0 163 15 197 21 47 271 295 297 295 15 0 18 -16 25 -127 4 -71
7 -343 6 -606 0 -579 -2 -594 -93 -693 -26 -28 -57 -49 -91 -61 -49 -17 -162
-18 -2282 -18 -1777 0 -2241 3 -2285 13 -103 24 -161 81 -195 193 -13 43 -16
95 -15 254 3 407 16 790 28 810 14 25 13 57 12 -360 -1 -282 2 -364 15 -424
38 -180 124 -276 313 -350 l67 -26 1975 -1 c1102 -1 2016 2 2068 7 135 13 210
46 293 128 136 135 141 166 140 731 -1 239 -6 439 -10 443 -9 9 -33 -61 -47
-138 -4 -22 -8 -211 -8 -420 -1 -375 -1 -381 -25 -438 -35 -88 -95 -156 -172
-195 -109 -56 -180 -62 -644 -62 -533 0 -1375 12 -1375 19 0 3 25 17 54 29 30
13 57 31 60 39 7 18 -3 83 -13 83 -3 0 -19 -20 -34 -45 -42 -65 -88 -101 -147
-114 -48 -10 -829 -17 -1695 -15 -304 1 -337 2 -413 22 -181 47 -282 139 -323
294 -7 26 -14 198 -19 428 -4 223 -13 426 -21 482 -7 54 -9 101 -5 105 4 4 42
-28 84 -72 43 -44 92 -91 109 -103 18 -13 45 -44 60 -70 27 -46 28 -50 26
-191 0 -80 -4 -168 -8 -197 -6 -48 -10 -55 -43 -71 -48 -24 -51 -40 -9 -58 20
-8 38 -24 42 -35 3 -11 26 -43 50 -72 25 -28 52 -73 60 -99 18 -54 61 -101
120 -132 30 -15 66 -22 148 -26 l109 -6 63 -70 63 -70 169 1 c162 1 205 6 186
25 -4 4 -78 13 -163 19 l-154 10 -45 49 c-57 61 -100 79 -204 87 -45 3 -97 10
-114 16 -43 12 -99 82 -118 144 -11 37 -25 56 -55 79 -23 16 -43 40 -46 52 -4
13 -1 74 5 136 23 234 10 417 -35 485 -14 21 -13 24 15 48 17 14 44 50 61 80
17 30 40 59 50 64 18 9 13 19 -55 105 l-74 95 15 35 c22 53 33 204 34 443 l0
213 28 24 c16 13 41 51 56 84 23 53 31 61 68 73 59 20 61 38 4 38 -71 0 -91
-12 -121 -77 -43 -90 -78 -129 -138 -151 -43 -16 -52 -24 -52 -43 0 -19 6 -25
31 -27 30 -3 32 -6 49 -79 15 -61 17 -103 13 -226 -4 -95 -11 -164 -19 -185
-14 -32 -244 -272 -262 -272 -5 0 -7 10 -3 23 3 12 13 69 22 127 15 91 16 141
8 373 -12 358 -7 425 34 510 22 44 52 84 93 121 70 65 118 92 192 107 33 7
323 14 787 18 l735 6 64 28 c81 34 90 34 97 -3 7 -35 28 -55 48 -47 12 5 14
17 9 58 -8 64 12 65 41 1z m-1899 -41 c-126 -60 -196 -134 -243 -261 -21 -55
-25 -84 -26 -186 0 -67 -4 -120 -8 -117 -5 2 -8 -5 -8 -16 0 -12 4 -21 8 -21
5 0 12 -141 16 -312 3 -172 9 -326 12 -341 6 -26 4 -28 -17 -25 -21 3 -25 10
-30 58 -3 30 -4 204 -1 385 3 212 1 367 -7 432 -9 82 -8 117 3 183 31 177 114
243 311 249 l50 1 -60 -29z m-2227 -75 c105 -54 28 -212 -83 -170 -22 9 -45
57 -45 94 0 21 9 41 29 61 33 32 58 36 99 15z m4221 -57 c36 -13 51 -35 51
-78 0 -37 -21 -58 -65 -67 -47 -9 -55 0 -55 59 0 97 9 107 69 86z m3241 -25
c78 -52 166 -224 191 -374 11 -70 11 -78 -9 -123 -24 -53 -37 -54 -47 -4 -9
43 -129 413 -149 457 l-15 35 0 -80 c0 -60 8 -113 34 -210 38 -146 60 -222 70
-247 19 -46 -66 9 -112 73 -49 68 -66 150 -61 289 3 89 9 126 26 163 11 26 23
47 27 47 3 0 23 -12 45 -26z m-7172 -326 c49 -54 33 -121 -32 -134 -50 -9 -96
25 -96 70 0 71 82 112 128 64z m1979 -40 c-3 -8 -6 -5 -6 6 -1 11 2 17 5 13 3
-3 4 -12 1 -19z m-1532 -284 c33 -8 107 -37 165 -65 93 -45 114 -61 200 -147
78 -79 99 -106 109 -143 12 -43 11 -49 -14 -100 -15 -30 -29 -80 -32 -112 l-6
-58 -67 114 c-117 199 -237 363 -289 396 -93 59 -99 51 -30 -39 131 -168 186
-249 244 -361 62 -119 105 -212 100 -217 -1 -2 -34 2 -71 9 -135 22 -219 90
-290 233 -50 99 -52 102 -59 94 -3 -2 6 -38 20 -79 14 -41 24 -81 22 -89 -2
-8 -13 14 -25 50 -12 36 -40 119 -62 185 -36 107 -61 245 -58 320 2 38 18 39
143 9z m-618 -128 c22 -19 27 -31 25 -62 -4 -48 -17 -64 -52 -64 -42 0 -59 9
-75 41 -20 38 -19 65 5 89 27 27 63 25 97 -4z m8520 -40 c11 -11 -16 -24 -77
-36 -105 -21 -226 -61 -315 -105 -123 -61 -207 -96 -213 -91 -12 13 13 61 51
99 53 53 145 102 239 127 58 16 98 19 190 17 65 -2 121 -6 125 -11z m-17 -81
c0 -8 -9 -20 -20 -27 -11 -7 -20 -17 -20 -21 0 -20 -77 -100 -118 -124 -110
-65 -215 -84 -357 -64 l-50 6 47 28 c26 16 64 33 84 39 21 5 63 21 93 35 31
14 70 31 86 38 17 8 75 34 130 59 109 50 125 54 125 31z m-7253 -53 c41 -59
70 -140 76 -212 2 -30 2 -44 0 -30 -7 37 -18 43 -30 18 -15 -34 -43 -121 -43
-136 0 -23 -40 -103 -55 -108 -7 -3 -16 -16 -19 -30 -7 -26 -22 -32 -29 -11
-2 6 -2 -1 1 -17 3 -19 1 -26 -7 -22 -6 4 -11 12 -11 17 0 6 -14 42 -30 80
-17 38 -28 79 -26 91 24 120 50 226 57 240 5 9 16 47 25 85 25 108 38 113 91
35z m897 -42 c-5 -25 1 -40 37 -87 65 -84 64 -82 36 -111 -34 -36 -67 -93 -67
-114 0 -10 -3 -18 -7 -18 -17 0 -71 43 -133 103 l-65 64 98 97 c54 53 100 96
102 96 3 0 2 -13 -1 -30z m4439 -98 l68 -69 -65 -63 c-37 -35 -80 -72 -96 -82
-29 -17 -31 -17 -37 -1 -3 10 -26 44 -50 76 -23 33 -43 63 -43 68 0 5 15 29
34 53 19 25 37 63 41 85 l7 41 36 -19 c21 -11 68 -51 105 -89z m-4740 -137
c-3 -9 -8 -14 -10 -11 -3 3 -2 9 2 15 9 16 15 13 8 -4z m-1208 -15 c3 -5 1
-10 -4 -10 -6 0 -11 5 -11 10 0 6 2 10 4 10 3 0 8 -4 11 -10z m99 -189 c28
-36 58 -73 68 -82 10 -9 18 -20 18 -25 -1 -18 -110 112 -135 160 -14 28 -20
43 -13 32 7 -10 35 -48 62 -85z m571 45 c-4 -20 -13 -36 -20 -36 -7 0 -12 -12
-12 -26 0 -23 -65 -104 -84 -104 -10 0 1 39 14 47 6 3 7 1 3 -5 -10 -17 3 -15
20 3 15 14 8 20 -18 16 -5 0 -8 4 -8 10 0 6 7 8 16 5 12 -4 15 -2 10 9 -3 8
-9 22 -12 30 -3 8 -2 15 3 15 6 0 15 12 22 27 12 27 13 27 27 8 13 -17 16 -18
24 -5 5 8 10 24 10 34 0 11 3 17 6 14 3 -3 2 -22 -1 -42z m-1215 -158 c262
-42 414 -90 628 -197 199 -100 289 -166 473 -350 165 -165 244 -264 255 -320
7 -33 2 -38 -54 -47 -40 -6 -42 -6 -59 32 -10 22 -25 44 -33 50 -8 7 -25 21
-38 32 -12 11 -61 35 -108 53 -71 28 -101 47 -168 107 -136 122 -327 243 -596
377 -156 78 -346 155 -383 155 -6 0 0 -12 14 -26 13 -14 103 -65 199 -113 235
-118 372 -194 448 -248 35 -25 92 -64 127 -88 74 -49 204 -157 202 -166 -3 -9
-128 -111 -131 -107 -2 1 -11 19 -21 38 -25 49 -152 198 -176 205 -11 4 -30 0
-44 -9 -30 -20 -145 -193 -145 -219 0 -17 -6 -15 -42 15 -24 20 -79 55 -123
79 -66 36 -106 71 -227 193 -81 82 -175 188 -209 235 -65 92 -147 254 -156
307 -5 31 -4 33 28 37 61 7 211 -4 339 -25z m8707 6 c7 -20 -47 -145 -109
-249 -106 -178 -304 -391 -458 -492 -30 -20 -81 -56 -113 -80 -33 -25 -60 -43
-62 -41 -1 2 -19 35 -39 73 -43 82 -101 164 -121 172 -33 12 -64 -11 -147
-111 -49 -57 -90 -111 -94 -119 -4 -12 -21 -3 -73 41 l-67 56 74 68 c145 132
336 244 725 427 157 74 200 101 159 101 -37 0 -194 -50 -271 -87 -364 -173
-457 -227 -634 -369 -48 -39 -122 -91 -165 -117 -43 -25 -92 -59 -109 -76 -34
-32 -110 -74 -155 -85 -25 -6 -28 -4 -28 18 0 46 65 146 172 265 120 134 227
223 386 324 147 94 166 103 337 164 205 73 385 107 675 127 105 7 111 6 117
-10z m-8095 -751 c54 -71 108 -156 108 -170 0 -6 -14 -38 -32 -71 -35 -70 -38
-69 -89 5 -36 52 -63 55 -104 13 l-29 -31 -18 23 c-26 33 -22 71 13 141 35 68
88 147 100 147 4 0 27 -26 51 -57z m7238 -67 c50 -98 52 -105 40 -140 -6 -20
-14 -36 -17 -36 -3 0 -21 14 -40 31 -32 27 -37 29 -56 16 -12 -8 -36 -32 -52
-53 l-30 -39 -43 58 c-41 56 -43 61 -31 89 13 33 72 112 122 165 22 24 34 30
43 22 7 -5 36 -56 64 -113z m-6835 -121 c29 -144 29 -145 11 -201 -13 -40 -18
-96 -20 -202 -4 -184 -22 -250 -94 -331 l-48 -53 0 148 c0 144 -1 152 -33 236
-18 48 -53 119 -78 158 l-45 71 32 65 c34 70 119 168 190 220 25 19 48 34 51
34 3 0 19 -65 34 -145z m-771 92 c61 -43 155 -164 156 -200 0 -10 -16 -47 -35
-81 -21 -38 -45 -104 -61 -171 -24 -98 -26 -122 -21 -225 4 -63 11 -130 16
-147 13 -43 1 -42 -49 5 -40 39 -116 184 -139 267 -18 67 -13 249 10 355 16
72 45 212 49 238 1 8 22 -4 74 -41z m7172 15 c78 -57 214 -228 214 -269 0 -8
-13 -31 -29 -51 -65 -84 -123 -282 -125 -430 -1 -87 -3 -101 -16 -96 -8 3 -23
8 -32 11 -37 11 -68 136 -83 338 -7 99 -18 194 -24 211 -10 25 -8 50 9 132 11
55 20 111 20 125 0 30 9 57 20 57 4 0 25 -13 46 -28z m-6298 -2 c38 -23 102
-85 102 -99 0 -13 -104 -81 -112 -73 -6 7 -38 154 -38 178 0 19 9 18 48 -6z
m7079 -120 c27 -99 35 -152 40 -252 7 -155 -5 -227 -55 -323 -31 -60 -136
-185 -146 -174 -2 2 1 45 6 94 15 123 -5 240 -67 407 l-48 128 18 46 c9 25 31
64 49 87 36 47 133 119 155 115 9 -2 26 -48 48 -128z m-929 58 c-10 -74 -17
-100 -26 -96 -75 34 -151 75 -151 81 -1 4 9 7 22 7 12 0 49 16 82 34 33 19 65
34 71 35 7 1 8 -18 2 -61z m-7210 -71 c9 -10 10 -21 3 -38 -5 -14 -14 -60 -21
-104 -7 -44 -15 -83 -19 -87 -3 -4 -16 1 -29 10 -25 19 -41 98 -42 196 l0 49
47 -7 c26 -3 53 -12 61 -19z m8302 -86 c0 -86 -3 -113 -16 -125 -30 -31 -44
-13 -44 58 0 24 -5 69 -12 100 -13 65 -6 76 45 76 l27 0 0 -109z m-6976 -6
c-2 -52 -6 -137 -8 -187 -3 -63 -11 -112 -27 -153 -26 -71 -73 -147 -103 -165
-27 -17 -206 -60 -206 -49 0 4 5 20 12 36 7 16 14 105 18 208 5 159 8 185 27
221 36 67 133 140 228 170 66 21 64 23 59 -81z m5711 62 c64 -32 104 -67 132
-115 24 -40 27 -59 35 -201 6 -103 16 -178 29 -220 21 -70 23 -91 11 -91 -26
0 -191 66 -210 84 -33 30 -69 104 -87 178 -15 66 -20 231 -9 336 7 60 7 62 33
55 14 -3 44 -15 66 -26z m-6480 -129 c84 -102 133 -183 161 -268 23 -69 26
-251 5 -324 -23 -79 -107 -146 -183 -146 -45 0 -134 47 -166 88 -44 56 -60 92
-73 167 -29 171 21 379 127 522 22 29 42 53 46 53 4 0 41 -42 83 -92z m7280
-78 c86 -170 98 -367 34 -518 -27 -62 -52 -88 -123 -124 l-58 -29 -54 26
c-130 63 -176 190 -144 395 20 125 74 230 178 347 l64 72 33 -48 c18 -26 50
-81 70 -121z m-6408 6 c35 -57 112 -142 153 -168 l25 -15 -55 -28 c-77 -39
-106 -62 -152 -125 -50 -66 -66 -79 -96 -80 l-22 0 24 48 c51 101 77 208 77
318 0 57 3 104 7 104 4 0 22 -24 39 -54z m5443 -179 c8 -44 26 -90 52 -133 22
-36 38 -67 36 -69 -2 -1 -19 -5 -39 -9 -35 -6 -39 -4 -105 67 -38 41 -88 86
-111 102 -48 31 -52 41 -23 50 29 9 103 96 136 159 l29 56 6 -78 c3 -43 12
-108 19 -145z m-7100 186 c74 -19 189 -87 194 -116 3 -12 12 -62 21 -112 20
-110 42 -162 96 -226 33 -39 37 -49 22 -49 -44 1 -234 30 -250 39 -40 21 -123
122 -158 191 -35 69 -64 164 -80 259 l-7 43 53 -7 c30 -4 79 -14 109 -22z
m8840 1 c0 -34 -53 -190 -93 -274 -20 -42 -55 -89 -97 -131 l-65 -66 -90 -6
c-49 -4 -106 -10 -125 -13 l-35 -7 28 34 c68 85 99 165 114 289 9 85 17 96 85
131 88 45 164 68 226 68 50 1 52 0 52 -25z m-2397 -118 c-2 -44 -5 -82 -8 -85
-3 -3 -132 -7 -286 -9 -280 -4 -280 -4 -286 17 l-5 22 -1147 -1 c-630 0 -1300
0 -1488 0 l-343 0 0 33 c0 41 -21 73 -44 64 -13 -5 -16 -20 -16 -74 l0 -68
-252 3 c-139 2 -256 6 -259 10 -8 9 -18 160 -11 167 3 3 937 4 2076 2 l2071
-2 -2 -79z m-4260 -122 c32 -5 47 -12 50 -25 5 -17 23 -18 321 -17 295 1 316
2 332 19 17 18 64 19 1465 19 l1448 0 7 -22 6 -21 341 7 c330 6 342 7 361 28
18 20 26 20 135 15 133 -6 189 -21 255 -66 74 -51 108 -103 423 -641 66 -113
218 -367 338 -565 293 -485 302 -500 326 -573 65 -196 -72 -347 -357 -392 -65
-11 -2593 -18 -2629 -7 -55 15 -76 17 -70 7 8 -13 60 -13 -2005 -11 -994 2
-1815 7 -1852 12 -228 31 -388 160 -388 313 0 88 42 167 420 801 23 39 69 117
102 175 33 58 102 175 152 260 51 85 119 200 151 255 87 150 154 255 193 304
78 96 285 151 475 125z m5107 -212 c77 -12 112 -24 242 -85 108 -50 160 -92
137 -109 -11 -8 -11 -9 3 -5 9 3 28 -3 43 -15 l26 -20 -33 -18 c-18 -9 -63
-25 -99 -34 -82 -20 -143 -10 -239 40 -138 72 -274 233 -217 258 13 6 31 4
137 -12z m-5760 -17 c-33 -88 -87 -153 -168 -203 -48 -29 -213 -82 -257 -82
-46 0 -145 38 -145 56 0 8 3 14 8 14 4 0 45 32 92 71 125 104 187 131 313 138
56 4 111 12 122 18 33 20 46 16 35 -12z m7050 -98 c19 -2 51 -11 70 -21 44
-24 147 -93 154 -104 5 -9 -209 -91 -294 -113 -78 -20 -207 -15 -275 11 -33
13 -69 29 -80 36 -18 13 -18 14 10 14 28 1 29 1 11 15 -19 14 -41 15 -61 3 -6
-4 -17 -3 -25 3 -12 7 -8 14 20 36 19 16 56 47 82 70 31 27 61 44 85 48 21 4
43 8 48 11 9 3 160 -2 255 -9z m-8200 -18 c75 -13 107 -28 170 -78 25 -19 47
-37 49 -38 3 -2 -7 -15 -21 -29 -40 -41 -183 -84 -276 -84 -82 0 -194 24 -302
65 -36 13 -78 29 -94 35 -28 10 -28 11 -10 32 11 11 51 43 89 70 l70 50 130
-6 c72 -3 159 -11 195 -17z m967 -236 c-30 -49 -79 -128 -107 -178 -29 -49
-69 -109 -91 -132 l-39 -42 -26 50 c-28 56 -70 82 -157 94 -26 4 -49 11 -52
14 -2 4 -7 37 -11 74 l-7 66 45 44 45 44 48 -19 c114 -45 216 -32 334 41 36
22 67 38 69 36 3 -3 -20 -44 -51 -92z m6033 34 c67 -39 131 -50 212 -37 37 5
83 18 103 27 l35 17 41 -40 41 -39 -6 -73 c-3 -41 -8 -77 -11 -82 -3 -4 -33
-11 -67 -15 -73 -8 -91 -16 -135 -58 -56 -52 -71 -39 -195 168 -60 98 -108
181 -108 183 0 2 10 -2 23 -10 12 -8 42 -26 67 -41z m-6500 27 c0 -23 -164
-53 -210 -39 -26 8 -26 24 0 33 19 7 210 12 210 6z m-96 -208 l13 -64 -39 -4
c-22 -2 -41 -2 -43 0 -3 3 17 68 40 131 9 23 17 6 29 -63z m7146 6 l17 -62
-38 0 c-22 0 -39 4 -39 8 0 33 25 122 33 119 6 -2 18 -31 27 -65z m-6955 -145
c23 -12 35 -27 35 -44 0 -10 -57 -13 -250 -13 -241 0 -250 1 -250 19 0 40 41
47 270 48 104 1 183 -3 195 -10z m7169 -6 c9 -8 22 -23 27 -33 9 -17 -1 -18
-251 -18 l-260 0 0 29 c0 16 6 32 13 35 6 3 111 4 233 3 174 -2 225 -5 238
-16z m582 -111 c66 -23 159 -90 167 -119 3 -12 1 -19 -4 -15 -5 3 -9 -2 -9
-10 0 -9 -6 -16 -12 -17 -7 0 -4 -4 7 -9 19 -8 19 -9 -2 -9 -14 -1 -23 5 -23
14 0 10 -10 15 -27 15 -16 1 -41 6 -56 13 -21 9 -86 10 -245 6 -256 -8 -840 0
-863 12 -8 4 -27 30 -43 58 l-27 51 336 0 c289 0 336 2 341 15 5 13 37 15 205
15 173 0 207 -3 255 -20z m-7877 -437 c-18 -32 -48 -82 -67 -112 l-34 -53
-122 7 c-66 4 -143 11 -170 16 -27 5 -194 9 -371 9 -318 0 -322 0 -356 23 -38
26 -79 81 -79 108 0 10 11 26 24 34 21 14 53 15 277 5 351 -14 811 -12 869 5
25 7 49 13 53 14 5 0 -6 -25 -24 -56z m7622 36 c567 3 607 2 623 -15 13 -12
16 -26 12 -47 -8 -38 -28 -61 -73 -82 -30 -15 -79 -16 -426 -13 -216 2 -456
-1 -534 -6 l-141 -9 -34 54 c-19 30 -45 71 -58 93 l-23 38 24 -8 c13 -5 297
-7 630 -5z m-294 -265 c16 -16 50 -41 76 -56 29 -17 47 -35 47 -46 0 -10 21
-53 47 -96 l47 -79 -23 -18 c-25 -20 -92 -35 -202 -45 l-76 -6 -5 84 c-4 80
-7 90 -62 192 l-58 109 90 -5 c84 -4 92 -6 119 -34z m-7470 -16 c-46 -61 -88
-169 -94 -242 l-6 -68 -46 6 c-25 3 -94 9 -153 12 -58 4 -112 10 -118 14 -20
12 -2 47 51 100 47 47 49 52 43 89 -6 36 -3 42 36 80 l42 41 135 0 134 0 -24
-32z m138 -581 c151 -76 66 -72 1496 -68 l1276 3 40 -35 c22 -20 50 -40 64
-45 14 -5 280 -8 616 -6 644 3 622 1 653 59 l13 25 1286 -5 c1308 -5 1358 -4
1491 30 17 5 21 4 12 -3 -11 -7 -9 -10 8 -15 12 -3 24 -15 27 -26 6 -22 37
-29 48 -11 4 6 10 8 15 5 4 -3 10 2 14 10 3 8 11 15 18 15 6 0 -6 -16 -28 -35
-49 -44 -159 -90 -244 -104 -40 -6 -571 -13 -1365 -17 -1655 -10 -1389 -10
-3005 -1 -2207 11 -2218 11 -2369 54 -86 24 -189 141 -206 236 l-7 38 37 -34
c20 -18 69 -50 110 -70z m3598 -114 c-13 -2 -33 -2 -45 0 -13 2 -3 4 22 4 25
0 35 -2 23 -4z m-3744 -116 c8 -10 7 -14 -4 -14 -8 0 -15 6 -15 14 0 7 2 13 4
13 2 0 9 -6 15 -13z m7341 -5 c0 -15 -64 -68 -125 -105 -47 -29 -77 -39 -141
-48 -45 -6 -92 -9 -105 -7 -13 2 3 7 36 11 150 17 240 55 296 126 23 30 39 39
39 23z m-99 -126 c-7 -8 -26 -19 -43 -25 -37 -13 -32 -7 14 19 41 23 44 24 29
6z m-3606 -7 c495 -1 923 -5 950 -9 l50 -6 -75 -7 c-70 -7 -1002 -13 -1645
-11 -154 0 -482 0 -730 0 -247 -1 -623 2 -835 6 -241 4 -387 3 -391 -3 -7 -11
-331 1 -369 14 -8 3 -40 9 -70 14 -51 8 579 8 3115 2z m2630 -8 c40 -16 -107
-23 -545 -26 -463 -3 -804 6 -855 23 -20 7 197 10 675 10 388 1 714 -3 725 -7z
m-5920 -12 c4 -5 -2 -6 -11 -2 -11 4 -15 2 -11 -4 4 -6 1 -13 -6 -16 -7 -3
-13 3 -13 12 0 18 32 26 41 10z m93 4 c-10 -2 -28 -2 -40 0 -13 2 -5 4 17 4
22 1 32 -1 23 -4z"/>
<path d="M5061 8044 c0 -11 3 -14 6 -6 3 7 2 16 -1 19 -3 4 -6 -2 -5 -13z"/>
<path d="M5937 7694 c-16 -9 -26 -18 -24 -21 9 -9 78 18 72 28 -8 12 -15 11
-48 -7z"/>
<path d="M5280 7517 c0 -31 -15 -34 -49 -11 -22 16 -22 16 -19 -12 3 -27 6
-29 43 -29 37 0 40 2 43 29 2 16 -1 33 -7 39 -8 8 -11 3 -11 -16z"/>
<path d="M5179 7429 c-11 -7 -10 -13 11 -30 51 -41 69 -51 88 -45 20 7 67 64
59 73 -10 9 -143 11 -158 2z m121 -29 c0 -5 -16 -10 -35 -10 -19 0 -35 5 -35
10 0 6 16 10 35 10 19 0 35 -4 35 -10z"/>
<path d="M9026 7213 c-6 -14 -5 -15 5 -6 7 7 10 15 7 18 -3 3 -9 -2 -12 -12z"/>
<path d="M3702 6903 c3 -115 6 -138 18 -138 11 0 16 14 18 58 l3 57 54 0 55 0
0 -54 c0 -60 15 -80 37 -50 10 14 13 48 11 134 -3 110 -4 115 -25 118 -20 3
-22 -2 -25 -45 l-3 -48 -53 -3 -53 -3 2 46 c3 44 -8 64 -34 65 -4 0 -6 -62 -5
-137z"/>
<path d="M3996 6988 c-38 -86 -77 -208 -71 -218 12 -20 32 -9 41 23 9 31 11
32 64 32 53 0 55 -1 65 -32 10 -35 32 -44 41 -18 10 26 -86 265 -106 265 -6 0
-21 -24 -34 -52z m37 -106 c-35 -5 -39 3 -18 35 l19 28 12 -30 c12 -28 11 -30
-13 -33z"/>
<path d="M4448 6996 c-80 -206 -84 -222 -57 -229 13 -4 22 0 26 11 16 52 26
62 65 62 33 0 41 -5 59 -34 20 -34 44 -52 53 -38 13 21 -90 255 -116 265 -9 3
-20 -10 -30 -37z m50 -72 c11 -37 -1 -53 -32 -41 -12 5 -12 13 -4 41 6 20 14
36 18 36 4 0 12 -16 18 -36z"/>
<path d="M3492 6903 l3 -128 53 -3 c91 -5 139 44 108 110 -13 27 -14 41 -6 63
21 55 -27 85 -137 85 l-24 0 3 -127z m116 50 c3 -20 -1 -23 -32 -23 -32 0 -36
3 -36 26 0 23 3 25 33 22 24 -2 33 -8 35 -25z m7 -93 c9 -29 -2 -40 -41 -40
-26 0 -34 4 -34 18 0 41 63 60 75 22z"/>
<path d="M4583 6993 c2 -21 20 -78 38 -128 26 -69 39 -91 54 -93 18 -2 26 13
63 115 23 65 42 122 42 126 0 5 -10 7 -21 5 -17 -2 -27 -18 -44 -71 -32 -98
-39 -101 -65 -20 -22 67 -44 103 -63 103 -5 0 -7 -16 -4 -37z"/>
<path d="M4846 7001 c-21 -39 -72 -170 -80 -203 -9 -41 26 -38 45 3 13 27 20
31 63 34 46 3 48 2 62 -32 10 -24 20 -33 32 -31 9 3 16 11 14 19 -8 41 -98
239 -109 239 -7 0 -19 -13 -27 -29z m37 -63 c2 -13 8 -31 12 -40 6 -15 2 -18
-23 -18 l-29 0 10 45 c11 46 21 51 30 13z"/>
<path d="M3275 6994 c-96 -64 -149 -143 -138 -208 5 -33 4 -36 -19 -36 -43 0
-61 31 -56 96 5 56 5 56 -14 33 -33 -44 -42 -92 -24 -127 9 -18 24 -32 34 -33
32 -2 67 3 85 12 25 14 68 86 61 104 -10 24 72 91 134 110 56 17 72 36 52 60
-19 23 -71 18 -115 -11z"/>
<path d="M4194 7003 c-76 -62 -64 -183 21 -219 43 -18 96 -18 120 0 11 8 19
27 19 47 1 19 5 40 9 47 10 15 -30 32 -74 32 -39 0 -41 -36 -3 -50 33 -13 26
-34 -12 -38 -33 -3 -70 28 -75 63 -9 64 38 103 107 91 33 -7 35 -6 32 16 -3
21 -9 23 -63 26 -45 1 -65 -2 -81 -15z"/>
<path d="M7200 6996 c0 -33 25 -46 89 -46 59 0 75 -16 122 -120 37 -80 73
-120 110 -120 29 0 69 40 69 69 0 40 -25 97 -52 123 -39 36 -60 36 -25 0 20
-21 27 -38 27 -68 0 -73 -69 -101 -78 -33 -2 13 -8 29 -13 35 -4 5 -6 27 -2
47 7 47 -6 63 -67 81 -26 8 -61 21 -77 29 -16 9 -45 18 -66 22 -35 7 -37 6
-37 -19z"/>
<path d="M4910 6709 c-68 -30 -120 -85 -120 -127 0 -27 10 -43 53 -86 65 -65
99 -74 167 -45 65 28 110 77 117 126 5 35 1 45 -27 77 -35 39 -97 76 -127 75
-10 0 -38 -9 -63 -20z m106 -60 c19 -21 18 -21 -12 -49 -24 -21 -39 -26 -59
-22 -23 4 -27 2 -22 -11 4 -11 -1 -20 -13 -27 -26 -14 -27 -13 -46 15 -15 23
-15 27 2 52 28 44 56 62 95 63 24 0 42 -7 55 -21z"/>
<path d="M5276 6533 c-3 -43 -13 -123 -21 -177 -17 -115 -19 -156 -5 -156 10
0 50 57 94 133 34 59 62 73 174 82 l84 8 -8 -449 c-3 -247 -10 -456 -15 -466
-5 -9 -29 -26 -54 -38 -44 -21 -61 -53 -32 -61 6 -2 120 -2 252 1 235 5 240 5
243 26 3 18 -5 23 -41 32 -76 20 -72 -7 -69 491 2 245 7 450 12 454 8 10 166
-10 191 -24 30 -16 72 -73 105 -144 30 -66 32 -69 42 -45 13 34 22 347 11 377
-12 31 -34 29 -67 -7 -24 -28 -35 -32 -112 -40 -47 -4 -217 -6 -378 -2 l-293
5 -49 39 c-26 21 -50 38 -52 38 -3 0 -8 -35 -12 -77z"/>
<path d="M3872 6554 c-132 -30 -190 -61 -277 -149 -135 -135 -181 -259 -173
-469 6 -143 23 -198 98 -304 87 -124 211 -206 358 -236 186 -39 365 -28 530
33 130 48 122 37 122 177 0 66 3 169 7 229 l6 108 66 29 c60 28 64 31 46 44
-15 11 -73 14 -284 14 -146 0 -276 -3 -288 -6 -37 -10 -27 -32 20 -45 149 -41
147 -38 147 -228 0 -208 -6 -250 -39 -263 -41 -16 -164 -12 -219 6 -99 33
-190 149 -226 288 -22 84 -29 223 -17 309 25 177 95 290 213 345 55 25 74 29
153 29 75 -1 98 -5 140 -25 61 -30 127 -96 167 -167 28 -50 49 -65 62 -44 3 5
8 77 11 160 4 130 3 153 -10 158 -9 3 -24 -2 -35 -12 -24 -22 -71 -18 -204 18
-126 35 -230 35 -374 1z m107 -27 c-2 -2 -51 -23 -108 -46 -118 -48 -128 -53
-195 -119 -66 -64 -98 -113 -132 -202 -25 -66 -28 -89 -28 -190 -1 -101 3
-125 28 -198 29 -86 30 -112 1 -69 -57 88 -82 294 -50 416 25 96 69 175 134
240 71 71 128 106 235 142 69 24 129 37 115 26z"/>
<path d="M6565 6510 c8 -34 -12 -99 -85 -285 -26 -66 -64 -174 -85 -240 -53
-172 -78 -236 -137 -355 -44 -87 -61 -110 -98 -136 -36 -24 -46 -37 -48 -63
l-3 -33 185 4 c154 3 189 7 202 20 19 18 11 38 -14 38 -9 0 -36 9 -59 20 -53
24 -54 37 -12 157 50 144 30 133 235 133 l175 0 14 -33 c30 -73 57 -200 46
-223 -9 -21 -62 -44 -98 -44 -21 0 -15 -38 8 -51 14 -7 105 -11 261 -12 224
-2 241 -1 252 16 9 16 7 22 -14 35 -14 10 -34 27 -45 38 -25 27 -88 175 -170
399 -35 94 -88 231 -120 305 -31 74 -74 180 -95 235 l-39 100 -131 3 -132 3 7
-31z m103 -330 c17 -47 40 -116 52 -155 12 -38 30 -81 41 -96 10 -15 19 -32
19 -38 0 -13 -258 -15 -278 -2 -11 6 -8 20 16 67 16 33 48 116 72 186 24 71
44 127 45 125 1 -1 16 -40 33 -87z"/>
<path d="M4750 6410 c66 -50 60 -6 58 -483 l-3 -432 -32 -14 c-34 -15 -43 -41
-20 -59 13 -10 360 -23 415 -14 44 6 41 32 -6 55 -81 39 -75 16 -73 304 0 142
4 331 8 421 l6 163 33 27 c19 15 34 31 34 35 0 5 -24 6 -52 3 -163 -17 -205
-18 -271 -2 -38 9 -80 16 -95 16 l-27 -1 25 -19z m128 -400 c0 -133 -3 -214
-8 -198 -4 15 -8 128 -8 250 0 123 4 212 8 198 4 -14 8 -126 8 -250z"/>
<path d="M7500 6410 c-36 -36 -19 -70 35 -70 17 0 36 -5 43 -12 9 -9 12 -3 12
28 0 66 -49 95 -90 54z"/>
<path d="M3036 6378 c-33 -47 -11 -59 67 -37 42 11 45 18 17 42 -28 24 -66 21
-84 -5z"/>
<path d="M3031 6231 c-27 -38 -26 -62 3 -90 34 -32 63 -21 76 30 21 76 -37
119 -79 60z"/>
<path d="M7516 6244 c-22 -21 -20 -67 3 -95 16 -20 23 -22 38 -13 22 13 46 80
38 105 -8 24 -57 26 -79 3z"/>
<path d="M2946 5498 c-24 -34 -19 -44 9 -18 14 13 25 27 25 32 0 16 -19 8 -34
-14z"/>
<path d="M7522 5417 c-31 -33 -30 -84 3 -99 18 -8 28 -8 39 1 24 20 30 69 12
96 -20 31 -27 31 -54 2z"/>
<path d="M3024 5395 c-20 -39 -15 -57 23 -82 19 -13 24 -12 42 6 26 26 27 72
3 94 -28 26 -47 20 -68 -18z"/>
<path d="M4820 5334 c-25 -18 -33 -26 -48 -52 -6 -10 -26 -9 -95 5 -112 21
-137 13 -137 -47 l0 -41 -77 8 c-43 4 -109 8 -146 7 l-68 -1 -49 -54 c-78 -85
-93 -125 -88 -222 10 -151 78 -265 195 -323 32 -16 60 -30 62 -31 2 -1 4 -12
5 -24 3 -63 95 -78 371 -61 91 5 182 6 210 1 134 -23 135 -23 135 -6 0 9 -14
24 -32 33 -26 13 -37 14 -67 5 -27 -9 -102 -10 -291 -3 -140 5 -263 13 -272
17 -29 12 -21 34 15 39 232 37 244 38 334 21 124 -23 267 -3 360 52 42 24 43
24 87 8 41 -16 47 -16 110 3 66 20 66 20 119 0 28 -11 72 -29 97 -41 39 -18
75 -21 285 -29 319 -12 348 -10 424 36 39 24 76 58 106 98 66 88 77 114 83
190 4 64 3 69 -36 131 -23 36 -44 77 -48 92 -10 39 -41 54 -135 66 -78 10
-121 8 -176 -7 -21 -6 -23 -3 -23 35 0 35 -3 41 -26 47 -36 9 -141 -1 -191
-19 -40 -14 -43 -13 -43 3 0 10 -14 32 -30 50 -31 33 -31 33 -108 27 -79 -5
-163 -32 -214 -68 l-28 -20 -44 30 c-56 39 -92 39 -144 1 -23 -16 -44 -30 -48
-30 -3 0 -42 18 -87 40 -102 49 -206 63 -247 34z m221 -82 c57 -25 63 -33 47
-67 -11 -24 -16 -26 -47 -20 -89 17 -191 70 -191 100 0 38 85 32 191 -13z
m654 14 c0 -24 -40 -49 -139 -86 l-73 -27 -26 33 -26 32 22 14 c52 34 135 57
197 55 37 -2 45 -5 45 -21z m-369 -48 c26 -18 64 -55 84 -83 33 -47 35 -53 34
-130 -1 -96 -17 -132 -76 -175 -77 -56 -115 -53 -187 18 -94 91 -97 236 -8
331 30 32 84 71 98 71 4 0 28 -15 55 -32z m-606 -4 c41 -9 100 -28 130 -42 30
-14 87 -34 125 -46 l70 -22 -3 -77 c-3 -65 0 -84 22 -133 14 -31 26 -61 26
-66 0 -15 -54 -2 -116 26 -67 31 -260 207 -314 286 -39 58 -52 103 -27 96 6
-3 46 -12 87 -22z m1260 22 c0 -3 -18 -31 -39 -63 -64 -96 -175 -197 -266
-243 -79 -40 -182 -76 -191 -67 -3 2 5 32 16 66 15 42 21 79 18 117 l-3 55
125 50 c147 58 340 107 340 85z m-1515 -86 c110 -16 125 -24 180 -97 52 -69
171 -174 263 -232 29 -19 49 -38 45 -42 -5 -5 -44 -13 -87 -19 -68 -10 -89 -9
-172 10 -203 47 -321 139 -382 300 -11 30 -23 63 -27 73 -6 15 0 17 51 17 33
0 91 -5 129 -10z m1830 -1 c3 -3 -11 -45 -31 -93 -61 -143 -169 -245 -296
-276 -106 -27 -149 -32 -239 -27 -91 6 -184 30 -174 47 2 4 43 22 90 40 97 36
152 78 283 213 66 70 90 87 120 92 20 4 42 8 47 11 15 5 193 -1 200 -7z
m-2055 -63 c0 -24 78 -174 111 -211 54 -61 165 -133 241 -155 37 -12 68 -25
68 -29 0 -5 -47 -16 -104 -26 -99 -17 -107 -17 -175 0 -92 22 -142 59 -174
127 -33 70 -53 188 -38 229 22 64 71 109 71 65z m2160 -96 c0 -42 -19 -98 -46
-129 -41 -49 -136 -106 -218 -131 -42 -13 -76 -28 -76 -33 0 -6 34 -7 88 -3
86 7 87 7 62 -11 -21 -15 -50 -19 -164 -21 -167 -5 -192 7 -85 39 181 54 292
147 339 283 10 30 24 64 30 76 12 22 12 22 41 -11 15 -19 28 -45 29 -59z
m-1250 -229 c0 -14 -73 -58 -126 -76 -74 -25 -176 -31 -193 -12 -11 14 -9 17
16 22 24 6 220 61 248 70 21 7 55 5 55 -4z m479 -47 c139 -39 163 -61 57 -51
-73 7 -180 39 -221 67 l-30 20 32 0 c18 0 91 -16 162 -36z"/>
<path d="M5719 5083 c-13 -3 -39 -42 -39 -57 0 -2 21 2 48 8 36 9 48 17 50 34
3 18 -1 22 -20 21 -13 -1 -30 -3 -39 -6z"/>
<path d="M4180 4906 c0 -17 35 -72 73 -113 51 -56 93 -73 187 -79 l75 -5 -85
26 c-110 34 -159 63 -209 126 -23 28 -41 49 -41 45z"/>
<path d="M7502 5224 c-40 -27 -22 -74 28 -74 35 0 50 17 50 57 0 29 -3 33 -28
33 -15 0 -38 -7 -50 -16z"/>
<path d="M3024 5216 c-7 -19 20 -64 43 -73 20 -8 44 7 54 33 11 30 -3 45 -49
51 -33 4 -43 2 -48 -11z"/>
<path d="M6840 5222 c1 -4 7 -18 14 -31 14 -25 31 -15 20 12 -6 16 -34 32 -34
19z"/>
<path d="M6980 5216 c0 -3 17 -14 38 -23 43 -21 52 -49 24 -83 -14 -18 -28
-22 -64 -22 -25 1 -50 2 -54 3 -21 4 -34 -2 -34 -16 0 -26 38 -37 101 -30 98
11 150 83 97 132 -13 11 -34 24 -48 28 -14 3 -33 9 -42 11 -10 3 -18 3 -18 0z"/>
<path d="M3517 5153 c-21 -20 12 -71 55 -86 26 -9 32 12 11 36 -11 12 -23 30
-26 40 -6 17 -28 23 -40 10z"/>
<path d="M6673 5114 c-8 -21 5 -31 48 -37 19 -2 51 -10 71 -17 32 -12 40 -11
62 3 41 27 23 42 -67 55 -105 15 -106 15 -114 -4z"/>
<path d="M3785 5093 c-7 -28 -29 -29 -62 -3 -30 23 -42 24 -78 8 -28 -13 -33
-33 -9 -42 28 -11 189 -7 201 5 7 7 29 15 50 18 24 4 39 12 41 23 3 14 -7 16
-67 15 -64 -2 -71 -4 -76 -24z"/>
<path d="M3795 4985 c-5 -2 -22 -6 -37 -9 -34 -8 -38 -40 -7 -56 44 -24 107
21 78 56 -12 14 -16 15 -34 9z"/>
<path d="M6775 4970 c-4 -6 -4 -22 -1 -36 7 -28 46 -33 66 -9 9 10 17 12 30 5
39 -21 105 13 69 36 -20 12 -157 15 -164 4z"/>
<path d="M3030 4801 c-14 -27 -12 -90 5 -126 l13 -30 1 38 c1 46 37 87 76 87
23 0 25 -3 19 -22 -21 -60 13 -133 73 -162 19 -9 35 -16 38 -16 10 0 10 37 0
50 -7 8 -20 38 -29 67 -10 28 -27 64 -38 79 -41 51 -137 72 -158 35z"/>
<path d="M7176 4804 c-21 -20 -20 -37 3 -65 13 -16 23 -21 29 -14 14 15 30 68
25 83 -6 17 -38 15 -57 -4z"/>
<path d="M7478 4804 c-15 -8 -50 -44 -78 -81 -52 -69 -56 -87 -22 -125 31 -36
62 -10 62 53 0 31 34 99 49 99 14 0 51 -46 51 -63 0 -10 -11 -41 -25 -70 l-26
-52 26 30 c57 67 85 181 53 213 -16 16 -57 14 -90 -4z"/>
<path d="M3410 4771 c0 -6 5 -13 10 -16 6 -3 10 1 10 9 0 9 -4 16 -10 16 -5 0
-10 -4 -10 -9z"/>
<path d="M3267 4576 c-15 -23 -15 -26 0 -41 33 -33 61 -46 87 -39 14 3 29 11
32 16 8 13 -45 68 -66 68 -9 0 -21 5 -27 11 -7 7 -15 3 -26 -15z"/>
<path d="M7267 4558 l-25 -32 -56 13 c-31 7 -70 10 -86 6 -25 -6 -30 -11 -30
-37 l0 -30 53 5 c73 8 181 25 201 33 30 12 14 74 -20 74 -7 0 -24 -14 -37 -32z"/>
<path d="M3465 4530 c-3 -11 -3 -24 0 -30 10 -16 68 -12 94 7 23 15 23 17 6
30 -11 7 -36 13 -56 13 -29 0 -39 -5 -44 -20z"/>
<path d="M6145 4538 c-16 -4 -101 -9 -187 -11 -159 -2 -203 -11 -105 -21 194
-20 283 -15 315 18 21 21 14 25 -23 14z"/>
<path d="M5255 4521 l-30 -7 31 -5 c36 -6 56 -1 48 12 -6 10 -5 10 -49 0z"/>
<path d="M6910 4521 c0 -9 78 -31 107 -30 25 1 -56 38 -84 39 -13 0 -23 -4
-23 -9z"/>
<path d="M2292 5783 c-15 -48 -8 -55 8 -8 7 20 10 38 8 41 -3 2 -10 -13 -16
-33z"/>
<path d="M3072 5818 c-23 -23 -14 -57 19 -73 34 -18 53 -10 65 27 12 40 -53
77 -84 46z"/>
<path d="M7482 5817 c-27 -29 -28 -53 -3 -67 56 -29 104 5 79 58 -17 35 -48
39 -76 9z"/>
<path d="M3000 3809 c-54 -22 -110 -94 -110 -143 0 -43 26 -48 216 -44 198 3
188 0 234 95 25 54 25 79 1 93 -25 13 -307 12 -341 -1z"/>
<path d="M3458 3803 c-26 -30 -68 -121 -68 -147 0 -35 40 -41 197 -30 l127 9
24 46 c13 26 26 65 29 86 7 51 0 53 -168 53 -107 0 -128 -3 -141 -17z"/>
<path d="M3890 3813 c-24 -10 -48 -45 -70 -103 l-21 -55 23 -19 c21 -16 37
-18 157 -14 154 5 157 7 188 105 l17 55 -23 19 c-20 16 -40 19 -140 18 -64 0
-123 -3 -131 -6z"/>
<path d="M4315 3813 c-41 -6 -61 -27 -80 -84 -23 -67 -17 -92 20 -100 39 -9
176 -9 245 -1 53 7 54 8 66 47 24 86 25 104 4 125 -18 18 -33 20 -122 19 -57
-1 -116 -4 -133 -6z"/>
<path d="M5895 3811 l-40 -6 1 -63 c1 -46 6 -70 21 -90 18 -24 27 -27 94 -30
41 -2 107 0 148 3 l74 7 -6 48 c-7 56 -39 125 -62 134 -20 7 -174 6 -230 -3z"/>
<path d="M6253 3813 c-18 -7 -16 -85 3 -134 21 -52 42 -59 157 -58 138 1 191
10 195 33 6 30 -19 106 -46 137 l-24 29 -136 -1 c-76 0 -143 -3 -149 -6z"/>
<path d="M7185 3813 c-64 -2 -112 -8 -116 -15 -8 -12 0 -42 26 -103 31 -73 16
-70 302 -73 240 -4 260 -3 281 15 29 23 23 55 -20 107 -50 61 -76 69 -228 71
-74 1 -184 0 -245 -2z"/>
<path d="M4662 3763 c-11 -27 -24 -61 -27 -78 -10 -57 -1 -60 165 -60 176 0
173 -1 184 96 10 89 10 89 -159 89 l-142 0 -21 -47z"/>
<path d="M5065 3780 c-24 -46 -29 -111 -12 -135 14 -18 29 -20 144 -23 73 -2
140 1 156 7 26 10 27 13 27 84 0 43 -5 78 -12 85 -8 8 -56 12 -150 12 l-137 0
-16 -30z"/>
<path d="M5456 3794 c-3 -9 -6 -42 -6 -75 0 -92 12 -99 158 -98 64 1 131 4
147 8 30 6 30 7 30 77 0 105 1 104 -175 104 -126 0 -149 -2 -154 -16z"/>
<path d="M6657 3804 c-20 -20 23 -155 56 -176 18 -11 262 -10 293 2 24 9 26
14 21 47 -4 19 -16 56 -29 82 l-23 46 -156 3 c-85 1 -158 -1 -162 -4z"/>
<path d="M3022 3573 l-182 -3 -46 -63 c-70 -95 -73 -105 -43 -132 25 -21 33
-22 190 -18 260 6 241 0 289 95 22 44 40 88 40 98 0 19 -21 31 -48 28 -9 -2
-99 -4 -200 -5z"/>
<path d="M3415 3571 c-49 -6 -51 -7 -82 -66 -40 -73 -51 -124 -32 -136 8 -5
82 -9 166 -9 177 0 175 -1 211 102 28 81 28 104 0 112 -28 7 -193 5 -263 -3z"/>
<path d="M4773 3572 l-143 -3 -15 -54 c-17 -57 -22 -131 -10 -143 11 -11 277
-14 306 -4 21 9 28 20 37 68 7 31 12 74 12 95 0 45 2 45 -187 41z"/>
<path d="M6423 3573 l-123 -4 0 -39 c0 -42 36 -150 54 -162 16 -11 281 -10
310 2 32 12 34 39 5 116 -27 72 -50 95 -91 92 -18 -1 -88 -4 -155 -5z"/>
<path d="M3772 3513 c-15 -34 -26 -77 -26 -103 l-1 -45 149 -3 c184 -3 185 -3
221 109 14 44 23 85 20 90 -4 5 -80 9 -171 9 l-165 0 -27 -57z"/>
<path d="M4202 3523 c-11 -27 -25 -68 -32 -92 -18 -68 -7 -73 173 -69 132 3
150 5 162 22 18 24 49 161 40 176 -4 6 -65 10 -164 10 l-159 0 -20 -47z"/>
<path d="M5031 3507 c-14 -82 -14 -120 1 -135 8 -8 59 -12 165 -12 142 0 155
2 174 21 19 19 20 28 14 97 -4 42 -9 80 -12 85 -2 4 -78 7 -168 7 l-163 0 -11
-63z"/>
<path d="M5454 3544 c-8 -33 11 -151 28 -171 10 -13 36 -15 159 -11 102 3 152
8 163 17 25 21 21 66 -16 164 l-10 27 -159 0 -159 0 -6 -26z"/>
<path d="M5870 3547 c0 -36 40 -171 53 -179 14 -9 249 -8 292 1 24 5 31 12 33
36 4 29 -8 81 -30 138 l-10 27 -169 0 -169 0 0 -23z"/>
<path d="M6723 3535 c10 -61 58 -156 84 -166 27 -10 229 -10 312 -1 73 9 82
25 51 93 -14 29 -37 65 -51 81 l-27 28 -187 0 -188 0 6 -35z"/>
<path d="M7203 3541 c7 -31 82 -161 101 -173 6 -4 122 -8 257 -8 226 0 247 2
262 18 10 10 17 25 17 32 0 20 -80 139 -101 150 -10 6 -132 10 -280 10 l-261
0 5 -29z"/>
<path d="M2777 3303 l-87 -4 -50 -76 c-51 -78 -60 -109 -38 -131 13 -13 388
-18 459 -6 36 6 38 9 79 106 23 54 39 102 35 106 -7 8 -261 11 -398 5z"/>
<path d="M3302 3303 c-38 -4 -46 -9 -72 -51 -38 -60 -75 -151 -66 -160 10 -9
279 -15 333 -7 49 7 68 32 105 138 20 59 21 69 8 77 -14 9 -217 11 -308 3z"/>
<path d="M3709 3286 c-18 -19 -69 -146 -69 -171 0 -8 9 -19 19 -25 22 -11 239
-13 311 -2 44 7 46 9 67 64 13 31 24 78 26 105 l2 48 -169 0 c-153 0 -172 -2
-187 -19z"/>
<path d="M4178 3303 c-19 -5 -54 -89 -64 -153 -11 -67 -3 -70 165 -70 80 0
152 4 159 8 19 12 51 104 58 167 l7 55 -154 -1 c-85 -1 -162 -3 -171 -6z"/>
<path d="M4587 3289 c-9 -12 -24 -55 -33 -95 -17 -71 -17 -74 1 -94 17 -18 30
-20 176 -20 155 0 159 0 174 23 18 28 43 183 31 194 -4 4 -81 9 -171 11 -159
3 -163 3 -178 -19z"/>
<path d="M5033 3302 c-13 -8 -33 -107 -33 -162 0 -20 5 -41 12 -48 8 -8 65
-12 190 -12 l178 0 11 27 c10 27 -2 171 -16 194 -7 11 -325 12 -342 1z"/>
<path d="M5471 3301 c-18 -12 -10 -131 13 -185 l15 -36 166 0 c96 0 175 4 186
10 26 14 25 67 -4 150 l-23 65 -169 2 c-94 2 -176 -1 -184 -6z"/>
<path d="M5923 3303 c-18 -7 -16 -31 8 -128 18 -71 25 -86 44 -91 12 -3 89 -4
170 -2 195 4 193 2 138 156 l-25 72 -162 -1 c-88 0 -167 -3 -173 -6z"/>
<path d="M6368 3303 c-23 -6 -23 -26 3 -109 37 -121 23 -114 217 -114 178 0
192 4 192 47 0 31 -37 126 -61 157 l-20 26 -157 -1 c-86 -1 -165 -3 -174 -6z"/>
<path d="M6811 3301 c-12 -8 -9 -23 14 -89 15 -44 38 -91 51 -105 l22 -25 542
-1 c541 -1 580 1 580 33 0 22 -123 184 -145 190 -34 10 -1049 6 -1064 -3z"/>
<path d="M6170 3030 l-185 -5 2 -45 c3 -67 62 -219 94 -243 25 -18 37 -19 223
-12 158 6 200 11 213 23 26 26 12 109 -33 199 -39 78 -39 78 -84 83 -25 3
-128 3 -230 0z"/>
<path d="M7482 3033 c-98 -4 -103 -5 -114 -28 -8 -18 -8 -32 0 -49 13 -30 49
-36 220 -36 145 0 147 1 117 60 -20 39 -53 60 -90 58 -16 -1 -76 -4 -133 -5z"/>
<path d="M2551 3013 c-30 -26 -121 -182 -121 -209 0 -72 33 -84 217 -84 177 1
230 9 254 41 29 39 112 237 105 254 -5 13 -37 15 -220 15 -189 0 -216 -2 -235
-17z"/>
<path d="M3107 2998 c-31 -44 -97 -189 -97 -214 0 -11 11 -31 25 -44 24 -23
27 -23 191 -17 159 5 168 6 191 29 22 22 103 221 103 252 0 22 -35 26 -217 26
l-172 0 -24 -32z"/>
<path d="M3623 3011 c-10 -11 -35 -61 -56 -111 -42 -101 -42 -129 4 -162 21
-15 40 -17 178 -11 137 5 156 8 177 27 26 23 94 203 94 249 l0 27 -190 0
c-175 0 -191 -1 -207 -19z"/>
<path d="M4122 3021 c-7 -4 -29 -55 -48 -111 -30 -90 -33 -108 -23 -132 6 -16
20 -33 30 -38 11 -7 359 -11 924 -11 822 -1 907 0 930 15 35 23 32 59 -11 183
l-37 103 -876 0 c-482 0 -882 -4 -889 -9z"/>
<path d="M6690 3023 c-58 -2 -109 -8 -114 -13 -15 -15 63 -207 99 -246 l32
-34 160 0 c142 0 162 2 176 18 25 28 21 56 -21 146 -57 120 -63 125 -152 129
-41 2 -122 2 -180 0z"/>
<path d="M7878 2903 c-91 -4 -91 -4 -49 -98 38 -84 50 -89 206 -80 135 8 155
17 155 71 0 43 -41 90 -88 104 -36 10 -59 10 -224 3z"/>
<path d="M7117 2883 c-19 -30 48 -149 88 -159 14 -3 74 -1 134 5 75 8 117 8
135 1 45 -17 248 -13 274 6 34 23 30 78 -8 116 l-30 30 -198 -2 c-108 0 -240
2 -293 6 -60 4 -99 3 -102 -3z"/>
<path d="M4369 2559 c-111 -16 -162 -71 -213 -234 -20 -66 -48 -153 -62 -193
-13 -40 -24 -82 -24 -95 0 -39 37 -85 89 -112 l50 -25 1073 2 1073 3 43 25
c54 31 85 80 85 134 0 43 -82 315 -114 377 -21 42 -70 86 -117 106 -27 11
-196 14 -935 16 -496 1 -923 -1 -948 -4z m1835 -69 c22 -5 51 -17 65 -28 29
-21 66 -109 107 -252 14 -52 32 -112 38 -133 12 -43 5 -59 -36 -90 -25 -19
-55 -19 -1104 -18 -1169 2 -1116 -1 -1129 54 -4 14 12 83 40 173 26 82 53 170
61 196 17 54 44 84 89 97 40 12 1819 13 1869 1z"/>
<path d="M2300 3650 c-9 -6 -10 -10 -3 -10 6 0 15 5 18 10 8 12 4 12 -15 0z"/>
<path d="M9065 2163 c-47 -11 -36 -23 22 -23 67 0 96 7 87 21 -5 9 -74 10
-109 2z"/>
<path d="M8708 1583 c6 -2 18 -2 25 0 6 3 1 5 -13 5 -14 0 -19 -2 -12 -5z"/>
<path d="M1173 8944 c-8 -22 14 -41 33 -29 22 14 19 28 -6 37 -15 5 -22 3 -27
-8z"/>
<path d="M1414 8939 c-3 -6 1 -18 9 -27 13 -13 21 -13 42 -4 38 17 32 42 -9
42 -19 0 -38 -5 -42 -11z"/>
<path d="M1530 8920 c0 -5 16 -10 36 -10 21 0 33 4 29 10 -3 6 -19 10 -36 10
-16 0 -29 -4 -29 -10z"/>
<path d="M1010 8771 c0 -23 19 -32 43 -19 28 15 21 38 -13 38 -23 0 -30 -5
-30 -19z"/>
<path d="M1262 8768 c7 -20 58 -23 58 -4 0 11 -10 16 -31 16 -20 0 -29 -4 -27
-12z"/>
<path d="M1157 8684 c-4 -4 -7 -16 -7 -26 0 -14 6 -19 23 -16 14 2 22 10 22
23 0 20 -25 32 -38 19z"/>
<path d="M1420 8676 c0 -13 20 -26 41 -26 5 0 9 9 9 20 0 15 -7 20 -25 20 -15
0 -25 -6 -25 -14z"/>
<path d="M1663 8683 c-36 -14 9 -60 47 -48 27 9 25 41 -2 49 -26 6 -28 6 -45
-1z"/>
<path d="M903 8663 c9 -9 20 -13 24 -9 4 4 1 11 -7 16 -25 16 -35 11 -17 -7z"/>
<path d="M1293 8534 c-7 -18 6 -45 24 -51 16 -6 43 25 43 48 0 25 -57 27 -67
3z"/>
<path d="M1016 8524 c-9 -22 1 -34 29 -34 13 0 26 4 29 9 11 17 -6 41 -29 41
-13 0 -26 -7 -29 -16z"/>
<path d="M1530 8521 c0 -10 7 -24 15 -31 19 -16 45 3 45 31 0 14 -7 19 -30 19
-23 0 -30 -5 -30 -19z"/>
<path d="M9162 8438 c-7 -7 -12 -44 -12 -94 0 -67 3 -83 17 -88 27 -11 34 15
28 99 -7 85 -14 102 -33 83z"/>
<path d="M8661 8352 c3 -74 2 -80 -24 -106 -50 -50 -43 -102 19 -142 24 -16
27 -16 52 3 52 38 54 98 7 145 -22 22 -24 30 -15 52 11 30 13 86 4 110 -3 9
-15 16 -26 16 -18 0 -20 -6 -17 -78z m37 -157 c1 -11 -4 -29 -11 -39 -14 -19
-15 -19 -26 3 -7 12 -9 31 -6 42 8 25 39 21 43 -6z"/>
<path d="M9465 8377 c-10 -52 -2 -91 18 -95 14 -3 17 4 17 40 0 83 -23 119
-35 55z"/>
<path d="M1156 8364 c-4 -10 -2 -22 3 -27 15 -15 46 -3 46 18 0 26 -40 33 -49
9z"/>
<path d="M3273 8357 c-12 -12 -37 -36 -56 -54 -19 -17 -40 -48 -47 -68 -11
-33 -10 -40 17 -83 16 -26 45 -58 66 -71 21 -14 37 -32 37 -43 0 -10 7 -21 15
-25 19 -7 55 24 55 46 0 9 14 22 30 28 40 15 85 108 75 154 -7 33 -60 99 -79
99 -6 0 -22 9 -36 20 -32 25 -50 25 -77 -3z m114 -89 c35 -45 12 -120 -42
-138 -37 -12 -58 -5 -86 27 -21 23 -32 74 -20 91 17 27 131 42 148 20z"/>
<path d="M8014 8356 c-10 -26 1 -51 21 -49 11 1 89 5 173 9 115 5 152 10 152
20 0 27 -41 34 -190 34 -122 0 -152 -3 -156 -14z"/>
<path d="M840 8351 c-36 -5 -45 -10 -45 -26 0 -18 7 -20 77 -20 84 1 98 7 82
33 -12 19 -46 23 -114 13z"/>
<path d="M1750 8339 c-171 -19 -329 -139 -386 -294 -14 -38 -30 -79 -34 -90
-4 -12 -28 -27 -58 -38 -27 -9 -72 -36 -98 -60 -46 -41 -51 -42 -74 -30 -40
22 -155 12 -224 -20 -74 -34 -163 -124 -195 -197 -13 -30 -27 -62 -31 -70 -5
-10 -26 -16 -71 -18 -72 -3 -85 -10 -67 -35 12 -16 100 -17 1333 -18 1242 0
1455 3 1485 21 24 15 -1 30 -48 30 -26 0 -53 4 -59 8 -7 4 -26 36 -43 69 -35
71 -122 156 -188 185 -56 25 -127 32 -182 18 -89 -23 -83 -24 -107 28 -55 119
-161 172 -344 172 l-67 0 -17 49 c-24 73 -68 135 -127 179 -123 93 -247 127
-398 111z m203 -79 c36 -11 91 -38 124 -60 69 -46 143 -139 143 -181 0 -27 -2
-28 -57 -31 -45 -2 -59 -7 -61 -20 -5 -27 58 -38 177 -31 196 11 325 -30 369
-119 12 -23 27 -62 32 -85 6 -24 15 -43 21 -43 6 0 27 12 46 28 33 24 44 27
117 27 89 -1 123 -13 167 -62 43 -45 79 -104 79 -128 l0 -23 -1185 1 -1185 0
0 24 c0 31 14 57 62 115 65 79 180 122 265 99 33 -9 44 -18 53 -44 l13 -32 10
32 c14 47 93 116 160 142 108 40 220 21 302 -51 51 -45 65 -47 65 -11 0 58
-140 143 -237 143 -39 0 -42 14 -13 77 92 204 314 301 533 233z"/>
<path d="M8905 8331 c-8 -27 1 -41 26 -41 16 0 20 6 17 27 -4 34 -33 43 -43
14z"/>
<path d="M7049 8266 c-29 -27 -29 -66 -1 -98 21 -24 44 -22 70 5 28 30 28 68
-1 95 -29 28 -36 27 -68 -2z m44 -51 c-3 -8 -9 -15 -14 -15 -10 0 -12 24 -3
33 11 11 24 -3 17 -18z"/>
<path d="M8142 8198 c-25 -31 38 -60 73 -34 18 14 18 15 3 16 -10 0 -17 6 -15
13 3 17 -47 21 -61 5z"/>
<path d="M9147 8174 c-3 -15 -1 -39 3 -54 7 -24 4 -31 -21 -49 -24 -18 -29
-29 -29 -66 0 -60 41 -110 83 -100 15 4 37 21 48 37 25 35 21 73 -13 121 -18
26 -22 42 -20 85 4 50 3 52 -21 52 -19 0 -26 -6 -30 -26z m39 -169 c7 -28 0
-55 -15 -55 -16 0 -33 39 -26 60 9 28 33 25 41 -5z"/>
<path d="M9449 8174 c-8 -24 -7 -31 7 -41 23 -17 36 -3 32 33 -4 37 -25 42
-39 8z"/>
<path d="M8902 8153 c4 -22 38 -30 49 -11 15 22 10 28 -22 28 -24 0 -30 -4
-27 -17z"/>
<path d="M9622 8158 c7 -19 38 -22 38 -4 0 10 -9 16 -21 16 -12 0 -19 -5 -17
-12z"/>
<path d="M7416 8131 c-4 -5 -35 -22 -69 -39 -83 -38 -110 -76 -115 -157 -7
-113 33 -194 109 -216 21 -7 46 -20 55 -31 18 -19 54 -24 70 -9 5 6 34 23 64
38 73 38 113 108 114 198 0 93 -28 139 -108 175 -35 15 -67 33 -70 39 -9 13
-43 15 -50 2z m109 -101 c60 -37 74 -120 35 -203 -26 -54 -64 -72 -142 -65
-89 9 -130 59 -132 161 -1 54 1 61 32 88 43 38 93 40 112 4 l14 -25 12 30 c15
35 26 37 69 10z"/>
<path d="M7415 7966 c-34 -10 -40 -16 -43 -43 -2 -24 3 -36 24 -52 32 -25 52
-26 82 -5 23 16 29 53 12 83 -14 26 -29 30 -75 17z"/>
<path d="M8665 8048 c-3 -7 -6 -37 -8 -67 -1 -42 2 -56 16 -65 23 -15 37 6 37
56 0 63 -31 114 -45 76z"/>
<path d="M9486 8004 c-7 -20 10 -54 28 -54 8 0 20 7 27 16 11 14 10 19 -10 35
-28 23 -37 24 -45 3z"/>
<path d="M8340 7990 c0 -15 7 -20 25 -20 28 0 34 24 9 34 -26 10 -34 7 -34
-14z"/>
<path d="M9730 7986 c0 -16 27 -29 41 -20 19 11 9 34 -16 34 -15 0 -25 -6 -25
-14z"/>
<path d="M8655 7857 c-16 -12 -17 -20 -9 -48 12 -43 50 -53 59 -16 16 60 -10
93 -50 64z"/>
<path d="M8885 7850 c-4 -7 0 -19 9 -28 13 -13 20 -14 34 -6 9 6 17 17 17 25
0 17 -50 24 -60 9z"/>
<path d="M9140 7821 c0 -32 4 -41 21 -46 29 -9 41 6 37 46 -2 29 -7 34 -30 37
-26 3 -28 1 -28 -37z"/>
<path d="M9390 7839 c0 -25 33 -22 38 4 2 12 -3 17 -17 17 -15 0 -21 -6 -21
-21z"/>
<path d="M9617 7853 c-12 -11 -7 -33 7 -33 12 0 26 20 26 36 0 7 -26 5 -33 -3z"/>
<path d="M8417 7830 c-6 -23 13 -36 39 -26 22 8 13 40 -12 44 -15 2 -23 -4
-27 -18z"/>
<path d="M9480 7728 c0 -7 4 -19 9 -27 8 -13 12 -13 26 -1 16 13 16 15 -1 27
-22 16 -34 17 -34 1z"/>
<path d="M9735 7720 c-4 -7 -3 -16 3 -22 14 -14 45 -2 40 15 -6 16 -34 21 -43
7z"/>
<path d="M8656 7694 c-11 -28 -6 -70 9 -90 15 -19 15 -19 35 5 22 26 25 52 10
82 -13 23 -46 25 -54 3z"/>
<path d="M9142 7688 c-18 -18 -15 -63 7 -82 16 -14 20 -15 30 -2 17 20 10 90
-9 94 -9 1 -21 -3 -28 -10z"/>
<path d="M8893 7614 c-7 -19 20 -49 36 -40 6 4 11 18 11 32 0 17 -5 24 -20 24
-11 0 -23 -7 -27 -16z"/>
<path d="M9384 7599 c-10 -17 13 -36 27 -22 12 12 4 33 -11 33 -5 0 -12 -5
-16 -11z"/>
<path d="M9617 7584 c-9 -10 2 -24 19 -24 8 0 14 7 14 15 0 15 -21 21 -33 9z"/>
<path d="M9860 7565 c0 -8 9 -15 20 -15 11 0 20 7 20 15 0 8 -9 15 -20 15 -11
0 -20 -7 -20 -15z"/>
<path d="M9470 7450 c0 -37 24 -50 48 -26 20 20 6 49 -27 54 -18 3 -21 -2 -21
-28z"/>
<path d="M8661 7442 c-7 -13 -6 -23 1 -30 21 -21 38 -13 38 18 0 34 -23 41
-39 12z"/>
<path d="M9720 7431 c0 -5 7 -14 15 -21 12 -10 18 -10 30 0 8 7 12 16 9 21 -7
12 -54 12 -54 0z"/>
<path d="M1226 7354 c-11 -29 13 -45 63 -42 58 4 69 30 20 47 -45 16 -76 14
-83 -5z"/>
<path d="M1465 7360 c-4 -6 -1 -18 6 -26 10 -12 40 -14 167 -12 170 3 206 16
99 36 -80 15 -263 16 -272 2z"/>
<path d="M9605 7267 c-21 -16 -13 -37 15 -37 19 0 34 25 24 41 -7 12 -17 11
-39 -4z"/>
<path d="M1024 7226 c-11 -28 4 -48 33 -44 22 2 28 8 28 28 0 20 -6 26 -28 28
-18 2 -29 -2 -33 -12z"/>
<path d="M1394 7205 c-7 -17 12 -45 31 -45 7 0 18 7 25 15 10 12 10 18 0 30
-16 19 -49 19 -56 0z"/>
<path d="M1600 7211 c0 -15 31 -42 44 -38 6 2 11 12 11 23 0 13 -8 20 -27 22
-16 2 -28 -1 -28 -7z"/>
<path d="M9450 7106 c0 -30 24 -40 43 -18 19 23 11 42 -19 42 -19 0 -24 -5
-24 -24z"/>
<path d="M9720 7096 c0 -7 7 -19 15 -26 12 -10 16 -9 21 3 3 9 3 21 -1 27 -9
15 -35 12 -35 -4z"/>
<path d="M1243 7053 c-33 -13 1 -62 43 -63 22 0 44 17 44 35 0 22 -58 40 -87
28z"/>
<path d="M1554 7035 c-10 -25 4 -45 31 -45 30 0 43 24 25 45 -16 19 -49 19
-56 0z"/>
<path d="M9610 6956 c0 -7 7 -19 15 -26 19 -16 41 1 32 24 -8 20 -47 21 -47 2z"/>
<path d="M1217 6883 c-13 -12 -7 -50 9 -64 31 -26 70 25 44 56 -13 16 -42 20
-53 8z"/>
<path d="M9446 6874 c-13 -13 -14 -19 -5 -31 20 -23 54 -12 54 17 0 30 -26 38
-49 14z"/>
<path d="M1421 6857 c-16 -20 -4 -46 26 -53 30 -8 46 6 41 37 -4 28 -48 38
-67 16z"/>
<path d="M9722 6818 c2 -13 11 -24 21 -26 22 -4 35 27 16 39 -25 16 -41 10
-37 -13z"/>
<path d="M2188 6741 c26 -5 53 -18 72 -36 21 -20 30 -24 30 -14 0 9 -10 25
-23 37 -18 17 -35 22 -73 21 l-49 -2 43 -6z"/>
<path d="M2105 6721 c-6 -11 9 -23 19 -14 9 9 7 23 -3 23 -6 0 -12 -4 -16 -9z"/>
<path d="M9613 6693 c-18 -7 -16 -28 3 -44 14 -11 18 -10 30 6 10 13 11 22 3
32 -12 14 -16 15 -36 6z"/>
<path d="M2297 6650 c6 -23 -20 -49 -49 -50 -10 0 -18 -4 -18 -9 0 -5 -3 -16
-6 -25 -5 -13 -1 -13 28 -4 74 24 82 28 70 40 -7 7 -12 22 -12 34 0 13 -4 25
-9 28 -5 4 -7 -3 -4 -14z"/>
<path d="M9371 6645 c14 -8 32 -28 39 -45 14 -33 31 -38 51 -14 11 14 10 19
-9 34 -12 10 -22 23 -22 28 0 5 -19 10 -42 10 -43 1 -43 0 -17 -13z"/>
<path d="M1382 6641 c-30 -19 7 -71 42 -58 17 7 23 57 7 57 -5 0 -15 2 -23 5
-7 3 -19 1 -26 -4z"/>
<path d="M9210 6509 c-33 -13 -33 -14 -21 -37 9 -17 19 -20 57 -17 51 4 74 18
74 46 0 16 -7 19 -42 18 -24 0 -54 -5 -68 -10z"/>
<path d="M9552 6478 c3 -7 16 -20 31 -28 30 -17 54 -3 44 24 -8 20 -81 23 -75
4z"/>
<path d="M1307 6314 c-4 -4 -7 -16 -7 -26 0 -13 7 -18 26 -18 21 0 25 4 22 22
-3 23 -27 35 -41 22z"/>
<path d="M820 5861 c0 -25 14 -41 37 -41 20 0 24 4 21 23 -2 16 -11 23 -30 25
-16 2 -28 -1 -28 -7z"/>
<path d="M1287 5723 c-13 -13 -7 -52 10 -61 35 -20 86 25 62 54 -12 14 -60 19
-72 7z"/>
<path d="M9420 5711 c0 -19 24 -51 39 -51 14 0 41 36 41 53 0 13 -9 17 -40 17
-33 0 -40 -3 -40 -19z"/>
<path d="M968 5713 c-21 -5 -25 -49 -5 -56 15 -5 67 9 80 22 14 14 -11 41 -37
40 -11 -1 -29 -3 -38 -6z"/>
<path d="M1070 5710 c0 -5 11 -10 25 -10 14 0 25 5 25 10 0 6 -11 10 -25 10
-14 0 -25 -4 -25 -10z"/>
<path d="M9594 5675 c-9 -23 3 -45 25 -45 26 0 45 32 29 48 -17 17 -48 15 -54
-3z"/>
<path d="M9134 5556 c-17 -45 29 -73 71 -42 16 12 18 18 9 33 -14 23 -72 30
-80 9z"/>
<path d="M836 4743 c-74 -14 -91 -26 -75 -55 13 -23 30 -23 62 3 l26 20 30
-21 c24 -18 32 -20 50 -10 28 14 25 60 -4 70 -11 3 -51 0 -89 -7z"/>
<path d="M9618 4749 c-24 -13 -23 -35 3 -53 19 -13 26 -12 65 2 50 19 53 25
22 46 -26 18 -65 20 -90 5z"/>
<path d="M734 3206 c-15 -12 -17 -18 -8 -33 9 -13 24 -18 58 -17 60 0 75 15
45 43 -26 24 -67 27 -95 7z"/>
<path d="M9347 3213 c-4 -3 -7 -16 -7 -29 0 -17 7 -24 29 -29 69 -15 136 22
95 52 -18 13 -106 18 -117 6z"/>
<path d="M9524 3206 c-3 -8 -4 -23 -2 -33 3 -15 14 -18 68 -18 56 0 65 3 68
19 2 11 -4 26 -14 33 -25 18 -113 17 -120 -1z"/>
<path d="M875 3200 c-11 -17 15 -40 45 -40 30 0 56 23 45 40 -3 5 -24 10 -45
10 -21 0 -42 -5 -45 -10z"/>
<path d="M9846 2227 c-24 -18 -15 -63 14 -72 54 -17 120 29 88 62 -21 21 -80
27 -102 10z"/>
<path d="M9491 2208 c-15 -38 5 -45 152 -52 l137 -7 10 25 c20 53 11 56 -146
56 -141 0 -145 -1 -153 -22z"/>
<path d="M770 2211 c-40 -4 -56 -10 -58 -23 -6 -33 33 -41 182 -34 78 3 149 6
159 6 14 0 18 7 15 28 l-3 27 -120 1 c-66 1 -145 -2 -175 -5z"/>
<path d="M1020 1841 c0 -13 9 -25 23 -30 29 -11 412 -25 427 -16 8 5 -4 17
-32 34 -42 25 -48 26 -230 29 -185 4 -188 3 -188 -17z"/>
<path d="M964 1458 c-9 -28 19 -48 65 -47 55 2 86 13 89 33 6 27 -15 36 -85
36 -55 0 -62 -2 -69 -22z"/>
<path d="M1014 1235 c-21 -33 -7 -71 30 -81 31 -7 44 1 57 33 22 59 -53 100
-87 48z"/>
<path d="M5973 1253 c9 -2 25 -2 35 0 9 3 1 5 -18 5 -19 0 -27 -2 -17 -5z"/>
<path d="M9514 1252 c-6 -4 -16 -17 -23 -29 -20 -38 22 -96 61 -85 24 6 48 40
48 68 0 39 -54 68 -86 46z"/>
<path d="M5817 1243 c18 -2 50 -2 70 0 21 2 7 4 -32 4 -38 0 -55 -2 -38 -4z"/>
<path d="M4268 1183 c-39 -25 -51 -58 -34 -92 28 -53 82 -76 141 -60 68 19 86
89 36 140 -24 23 -38 29 -73 29 -24 0 -55 -8 -70 -17z m106 -59 c8 -21 -1 -34
-24 -34 -29 0 -50 11 -50 25 0 26 64 34 74 9z"/>
<path d="M3240 1130 c-173 -4 -316 -7 -318 -8 -2 -1 -2 -12 0 -24 4 -33 43
-35 324 -25 131 4 323 7 427 5 103 -2 187 -1 187 3 0 3 -9 14 -19 23 -15 13
-48 20 -123 27 -57 4 -116 7 -133 7 -16 -1 -172 -5 -345 -8z"/>
<path d="M6218 1089 c-10 -7 -8 -13 10 -31 21 -21 33 -23 220 -30 439 -17 758
-24 767 -16 5 5 1 17 -12 30 -20 19 -41 23 -185 34 -198 15 -781 24 -800 13z"/>
<path d="M4990 1058 c-91 -5 -174 -12 -185 -17 -23 -9 1099 -24 1145 -15 l31
7 -28 18 c-26 18 -53 19 -413 17 -212 0 -459 -5 -550 -10z"/>
<path d="M9147 993 c-4 -3 -7 -12 -7 -20 0 -10 21 -13 85 -13 66 0 85 3 85 14
0 8 -7 17 -16 20 -21 8 -139 8 -147 -1z"/>
<path d="M1903 964 c-11 -28 25 -45 87 -42 51 3 55 5 55 28 0 24 -3 25 -68 28
-56 2 -68 0 -74 -14z"/>
<path d="M4173 883 c-43 -6 -42 -18 5 -35 29 -10 184 -13 727 -14 380 0 1021
-2 1425 -3 712 -2 1066 4 1075 19 2 4 -28 13 -68 20 -57 11 -386 14 -1602 15
-841 1 -1545 0 -1562 -2z"/>
<path d="M3397 733 c-14 -13 -7 -43 12 -53 30 -16 86 -12 111 8 21 17 21 19 5
35 -17 17 -114 25 -128 10z"/>
</g>
</svg>
