<?xml version="1.0" standalone="no"?>
<!DOCTYPE svg PUBLIC "-//W3C//DTD SVG 20010904//EN"
 "http://www.w3.org/TR/2001/REC-SVG-20010904/DTD/svg10.dtd">
<svg version="1.0" xmlns="http://www.w3.org/2000/svg"
 width="1024.000000pt" height="1024.000000pt" viewBox="0 0 1024.000000 1024.000000"
 preserveAspectRatio="xMidYMid meet">

<g transform="translate(0.000000,1024.000000) scale(0.100000,-0.100000)"
fill="#000000" stroke="none">
<path d="M0 5120 l0 -5120 5120 0 5120 0 0 5120 0 5120 -5120 0 -5120 0 0
-5120z m5402 3725 c186 -204 319 -387 393 -540 35 -71 69 -150 76 -174 13 -43
12 -44 -18 -70 -34 -29 -95 -108 -171 -222 -50 -75 -152 -271 -165 -320 -7
-23 -8 -23 -18 -4 -18 32 -78 92 -155 156 l-71 58 -111 -107 -111 -107 -56
121 c-63 136 -177 298 -269 382 -34 30 -56 59 -56 71 0 42 84 248 138 337 54
92 153 229 240 334 78 95 206 221 222 218 8 -2 67 -62 132 -133z m-1822 -563
c18 -55 33 -77 80 -124 l57 -56 -64 -49 c-68 -51 -113 -109 -113 -145 0 -16
-10 -4 -30 37 -36 74 -77 118 -135 142 -25 10 -45 20 -45 23 0 3 20 16 45 29
51 27 78 59 130 155 20 36 41 64 45 61 5 -3 18 -36 30 -73z m519 42 c58 -19
126 -47 151 -61 111 -64 353 -280 450 -402 81 -101 112 -159 194 -357 l42
-101 -27 -33 c-16 -18 -27 -36 -26 -39 4 -11 -42 -81 -53 -81 -5 0 -10 -9 -10
-19 0 -10 -7 -22 -16 -25 -8 -3 -12 -2 -9 4 3 6 4 10 1 10 -8 0 -67 -102 -62
-108 3 -3 15 3 25 12 15 13 10 -4 -19 -71 -33 -78 -41 -88 -63 -87 -23 1 -24
-1 -15 -33 5 -20 6 -45 0 -61 -8 -24 -10 -22 -34 39 -46 116 -131 438 -158
594 -13 81 -29 108 -61 103 -41 -6 -44 -28 -16 -129 14 -52 33 -132 42 -179
20 -105 106 -362 150 -450 23 -46 32 -74 28 -95 -12 -72 -45 -230 -48 -233
-13 -13 -186 306 -229 420 -36 96 -74 253 -91 376 -8 59 -18 120 -21 136 -6
28 -7 29 -20 11 -19 -26 -18 -209 1 -300 46 -216 190 -523 304 -648 26 -29 42
-58 49 -92 16 -71 35 -212 30 -225 -7 -21 -98 60 -179 159 -178 214 -321 489
-383 736 -45 181 -50 248 -35 548 19 366 16 551 -8 645 -16 61 -17 72 -5 72 8
0 62 -16 121 -36z m2468 -31 c-27 -90 -28 -307 -3 -535 23 -211 18 -447 -12
-585 -22 -97 -63 -242 -81 -283 -10 -25 -10 -23 2 70 2 8 6 21 10 28 5 6 4 12
-1 12 -5 0 -31 -60 -57 -132 -44 -124 -94 -230 -135 -288 -10 -14 -27 -42 -39
-62 -11 -21 -30 -54 -41 -73 -22 -40 -25 -49 -10 -40 6 3 10 2 10 -3 0 -11
-32 -39 -36 -32 -4 8 -54 -39 -54 -51 0 -7 14 4 31 22 17 19 27 27 22 17 -17
-34 -84 -99 -171 -165 -50 -39 -54 -40 -43 -9 5 12 19 74 32 137 17 88 27 119
45 137 54 52 108 137 155 243 77 174 115 277 134 364 10 44 24 105 31 135 19
73 19 234 0 249 -20 17 -32 -23 -50 -169 -9 -69 -28 -172 -42 -230 -51 -202
-173 -464 -240 -515 l-33 -25 -5 32 c-3 18 -10 76 -17 129 l-12 96 30 74 c46
109 78 220 123 412 71 307 74 352 24 352 -26 0 -43 -40 -49 -116 -7 -86 -21
-152 -101 -489 -15 -64 -63 -184 -71 -177 -2 2 -10 31 -19 63 -26 100 -126
290 -201 383 -37 46 -72 89 -77 96 -15 20 59 233 116 332 131 229 321 421 555
559 78 47 229 103 274 104 l26 0 -20 -67z m478 8 c23 -71 68 -136 114 -167 23
-15 41 -28 41 -30 0 -8 -60 -34 -78 -34 -12 0 -22 -9 -25 -21 -3 -12 -10 -18
-17 -14 -6 3 -9 3 -8 -2 1 -4 -6 -21 -17 -36 -10 -16 -24 -50 -31 -75 -10 -38
-13 -43 -19 -27 -35 97 -69 137 -154 183 l-53 30 44 30 c59 41 123 112 150
167 12 25 25 45 29 45 4 0 15 -22 24 -49z m-4000 -542 c182 -21 433 -124 595
-242 61 -45 178 -158 203 -198 9 -14 26 -77 38 -140 26 -150 41 -199 106 -354
80 -188 111 -246 225 -417 87 -130 121 -171 232 -278 71 -69 188 -184 260
-256 140 -140 189 -178 292 -226 91 -42 69 -52 -100 -45 -241 10 -375 34 -577
102 -157 53 -197 71 -334 148 -209 117 -430 322 -577 534 -139 201 -203 350
-259 606 -46 210 -100 397 -139 484 -37 81 -78 140 -158 224 l-64 69 83 0 c46
0 125 -5 174 -11z m4705 5 c0 -3 -23 -31 -50 -61 -86 -94 -172 -302 -225 -548
-82 -379 -116 -471 -257 -704 -96 -160 -281 -357 -462 -493 -86 -64 -287 -172
-416 -223 -64 -25 -235 -76 -317 -95 -87 -20 -418 -52 -472 -45 l-54 7 39 22
c113 66 194 132 409 332 431 401 559 581 681 952 26 78 55 195 69 273 15 94
29 147 43 166 35 48 144 149 207 190 151 101 406 203 550 222 83 10 255 14
255 5z m-2276 -412 c163 -206 270 -393 324 -567 45 -146 51 -177 58 -310 5
-94 3 -138 -11 -205 -35 -171 -85 -303 -142 -370 -26 -31 -165 -140 -178 -140
-3 0 -44 -18 -90 -40 -95 -45 -161 -52 -207 -22 -40 26 -188 228 -224 307 -68
148 -79 209 -79 425 0 121 -4 196 -10 198 -40 14 -57 -321 -22 -448 36 -132
116 -266 249 -420 45 -51 37 -60 -30 -35 -114 43 -238 151 -306 268 -117 200
-139 501 -55 772 68 220 274 553 462 748 l57 59 49 -44 c27 -23 97 -103 155
-176z m907 -665 c-10 -9 -11 -8 -5 6 3 10 9 15 12 12 3 -3 0 -11 -7 -18z m-6
-27 c-3 -5 -12 -10 -18 -10 -7 0 -6 4 3 10 19 12 23 12 15 0z m-3333 -40 c48
-12 93 -30 102 -39 8 -9 36 -54 64 -101 123 -212 146 -244 318 -427 155 -165
356 -305 534 -373 97 -37 118 -58 70 -71 -14 -4 -112 -18 -218 -30 -173 -20
-203 -21 -305 -10 -266 29 -464 96 -662 226 -110 72 -185 134 -339 279 -177
169 -249 224 -377 291 -60 31 -109 60 -109 64 0 41 293 174 445 202 138 26
353 21 477 -11z m5011 -4 c131 -34 377 -159 377 -193 0 -6 -35 -28 -77 -48
-140 -67 -238 -139 -397 -294 -167 -163 -262 -242 -379 -314 -239 -149 -547
-220 -857 -196 -122 9 -307 33 -315 40 -2 3 60 38 138 78 399 206 627 413 831
754 96 161 98 162 221 185 33 7 69 14 80 16 51 13 288 -5 378 -28z m-3355
-1117 l173 -13 -53 -34 c-170 -109 -562 -259 -906 -347 -147 -38 -172 -49
-172 -71 0 -19 40 -14 208 23 352 77 623 179 914 348 98 56 214 95 285 95 42
0 42 0 -76 -157 -84 -112 -259 -293 -346 -359 -170 -129 -324 -211 -503 -269
-199 -64 -385 -85 -592 -65 -297 28 -394 25 -537 -16 -34 -9 -30 13 30 161 63
156 108 239 188 345 67 89 133 144 256 213 144 82 294 119 608 151 152 16 258
15 523 -5z m3421 2 c122 -38 197 -104 250 -223 41 -90 55 -168 47 -268 -14
-199 -84 -335 -272 -529 -115 -120 -237 -209 -383 -281 -221 -109 -497 -192
-806 -242 -50 -8 -168 -12 -315 -12 -206 1 -245 3 -315 22 -93 25 -217 44
-225 35 -3 -3 1 -8 8 -10 6 -3 12 -11 12 -18 0 -7 6 -15 13 -18 6 -2 -42 -9
-108 -15 -170 -17 -272 -37 -346 -71 -36 -16 -82 -32 -102 -36 -32 -6 -37 -5
-37 12 0 43 95 91 252 129 57 13 124 31 150 38 30 9 61 11 87 6 23 -4 41 -5
41 -1 0 15 -93 62 -177 89 -221 72 -451 236 -560 399 -64 96 -93 167 -93 223
0 38 2 40 30 40 27 0 33 -7 64 -69 48 -94 140 -206 227 -278 142 -115 199
-147 402 -225 165 -63 267 -92 426 -119 114 -19 151 -21 386 -16 227 5 275 9
375 31 139 30 340 98 490 166 290 131 530 343 625 554 34 75 59 207 52 281
-12 128 -72 235 -159 285 -114 64 -212 58 -301 -20 -86 -76 -107 -162 -63
-257 48 -102 154 -112 172 -15 12 67 38 79 79 37 20 -19 25 -34 25 -77 0 -65
-18 -93 -74 -119 -123 -56 -259 14 -311 160 -45 130 11 289 133 373 85 59 193
73 301 39z m-2619 -26 c25 -8 107 -47 182 -86 266 -135 532 -240 763 -299 258
-67 395 -86 395 -56 0 16 -23 25 -170 61 -57 15 -147 40 -200 56 -52 17 -124
39 -160 50 -59 18 -126 43 -350 130 -87 34 -262 129 -267 145 -4 11 82 18 382
30 239 10 570 -27 740 -82 90 -30 229 -100 284 -145 126 -101 240 -270 320
-472 17 -43 42 -100 56 -127 l25 -48 -63 17 c-101 29 -180 33 -352 17 -383
-36 -472 -32 -717 34 -174 47 -307 107 -458 209 -138 93 -254 195 -350 308
-72 84 -190 260 -190 282 0 10 68 -2 130 -24z m-163 -284 c111 -80 111 -272 1
-316 -55 -22 -107 -19 -164 10 -67 34 -88 66 -92 140 -3 53 0 65 27 107 56 88
153 113 228 59z m-798 -766 c199 -33 328 -78 415 -143 28 -21 80 -54 116 -74
57 -32 151 -113 139 -120 -31 -20 -70 -38 -79 -38 -6 0 -30 15 -51 34 -22 18
-52 36 -67 40 -15 3 -38 9 -51 12 -21 6 -22 5 -12 -14 6 -12 36 -40 66 -62 30
-22 55 -46 55 -53 0 -7 -9 -23 -19 -36 -18 -23 -18 -23 -55 -6 -20 10 -63 42
-94 72 -92 89 -230 137 -472 163 -179 20 -364 15 -549 -14 -191 -30 -223 -38
-311 -73 -36 -14 -88 -33 -116 -43 l-52 -18 14 26 c40 80 150 151 273 177 90
20 452 55 559 55 97 0 285 -15 377 -31 51 -8 216 -55 271 -76 14 -5 15 -3 5
15 -17 32 -165 100 -251 117 -116 21 -374 38 -485 31 -82 -5 -281 -27 -443
-50 -23 -4 -32 -1 -29 7 2 7 8 12 13 13 5 0 29 10 54 21 53 23 223 70 307 83
81 13 360 4 472 -15z m2511 -149 c0 -14 -10 -37 -23 -51 -37 -43 -107 -56
-342 -62 -183 -5 -230 -3 -364 17 -227 33 -279 52 -212 79 23 10 62 10 178 1
81 -6 234 -11 338 -12 175 -1 198 1 285 24 126 34 140 34 140 4z m-960 -11
c-33 -19 -46 -19 -30 0 7 8 22 15 34 15 20 -1 20 -2 -4 -15z m-469 -105 c21
-1 -11 -23 -101 -70 -85 -43 -107 -48 -117 -24 -17 45 162 145 193 108 6 -8
17 -14 25 -14z m-1133 -71 c141 -13 251 -48 379 -118 105 -59 176 -112 157
-118 -19 -6 -211 62 -235 83 -50 45 -218 85 -334 80 -33 -1 -90 0 -127 3 -44
4 -68 3 -68 -4 0 -5 -4 -4 -9 4 -7 11 -19 11 -67 2 -33 -6 -77 -14 -99 -16
-101 -12 -208 -27 -298 -41 -54 -9 -113 -14 -130 -11 -18 3 -39 -1 -47 -8 -17
-14 -78 -35 -200 -70 -214 -62 -237 -64 -214 -27 17 26 79 65 142 90 298 114
402 143 585 162 94 9 413 3 565 -11z m860 -89 c43 -26 67 -68 82 -142 11 -56
10 -63 -8 -87 -27 -37 -91 -71 -132 -71 -46 0 -108 36 -137 79 -47 70 -14 177
67 218 56 28 86 29 128 3z m-2017 -483 c18 -12 39 -34 46 -47 32 -63 2 -150
-61 -183 -32 -17 -43 -18 -76 -8 -46 14 -87 59 -96 106 -12 66 60 155 126 155
15 0 42 -10 61 -23z m-692 -33 c86 -21 108 -24 131 -14 15 6 38 10 51 8 30 -4
34 -27 34 -203 0 -133 -1 -140 -20 -140 -15 0 -31 22 -65 89 -59 116 -103 160
-187 186 -243 75 -444 -51 -500 -313 -11 -53 -14 -105 -9 -197 10 -234 72
-379 199 -463 99 -66 209 -82 337 -49 l65 17 -2 185 c-3 184 -3 185 -28 207
-15 13 -44 26 -65 29 -48 8 -68 27 -50 49 17 21 446 22 474 2 22 -16 11 -26
-57 -51 -34 -13 -49 -24 -53 -42 -3 -13 -4 -114 -3 -224 l4 -201 -35 -9 c-221
-58 -447 -77 -565 -46 -131 34 -235 87 -291 147 -123 135 -174 265 -174 445 0
203 78 370 224 480 174 131 359 165 585 108z m3259 16 c35 -5 95 -18 134 -31
67 -20 72 -21 105 -5 44 21 70 20 77 -1 2 -10 8 -84 11 -165 6 -131 5 -149 -9
-154 -23 -9 -42 10 -78 78 -40 75 -100 144 -147 167 -60 31 -151 45 -210 32
-144 -31 -244 -132 -287 -291 -14 -49 -18 -101 -18 -210 1 -291 68 -443 227
-516 72 -32 193 -42 277 -22 l55 13 0 43 c-4 338 -4 341 -25 362 -15 15 -33
20 -69 20 -52 0 -84 19 -75 45 8 21 85 26 304 23 184 -3 195 -4 195 -22 0 -14
-12 -22 -46 -32 -26 -8 -52 -20 -58 -28 -9 -10 -13 -81 -15 -228 l-2 -213
-105 -28 c-173 -46 -271 -59 -374 -47 -283 31 -470 196 -531 468 -34 154 4
359 90 484 76 113 244 224 371 247 125 23 126 23 203 11z m-2100 -132 c8 -8
12 -51 12 -130 l0 -117 103 -3 c101 -3 102 -3 105 -29 2 -14 -3 -31 -11 -37
-7 -6 -56 -13 -108 -14 l-94 -3 -3 -100 c-2 -55 0 -178 3 -273 6 -154 9 -176
29 -205 19 -27 28 -32 70 -35 34 -2 57 3 82 17 19 12 37 21 40 21 2 0 4 -16 4
-35 0 -68 -106 -135 -213 -135 -66 0 -99 14 -143 62 -69 72 -69 73 -72 396
l-4 294 -46 -4 c-26 -1 -48 0 -49 5 -10 28 1 50 40 77 27 19 53 51 72 87 34
66 130 173 154 173 9 0 22 -5 29 -12z m-435 -415 c4 -108 7 -274 7 -370 0
-159 2 -175 20 -193 11 -11 31 -22 45 -26 19 -5 25 -13 25 -35 l0 -28 -187 6
c-104 3 -190 7 -191 9 -11 9 14 46 39 60 16 8 34 26 39 40 6 14 10 146 10 294
l0 270 -23 15 c-13 8 -37 18 -55 21 -62 13 -27 41 88 72 41 12 95 30 120 41
25 11 48 21 51 21 3 0 9 -88 12 -197z m4260 112 l-6 -84 50 48 c54 52 161 111
203 111 55 0 93 -65 70 -120 -14 -34 -44 -45 -93 -36 -105 20 -102 20 -140
-14 -76 -66 -78 -74 -77 -309 0 -115 4 -220 9 -233 11 -30 27 -42 74 -58 33
-10 38 -16 35 -38 l-3 -27 -199 2 c-110 2 -204 7 -209 12 -5 5 -2 15 10 25 10
8 33 29 51 45 l32 29 -1 234 c0 128 -4 256 -7 283 -7 49 -8 50 -54 64 -53 16
-56 21 -30 44 20 18 245 106 274 106 15 1 16 -8 11 -84z m1077 -243 c0 -313 6
-387 32 -403 7 -4 30 -11 50 -14 22 -4 38 -12 38 -20 0 -28 -13 -44 -43 -54
-36 -11 -184 -31 -234 -31 l-32 0 -3 67 -3 67 -57 -51 c-68 -62 -99 -79 -168
-94 -71 -15 -128 2 -189 57 -66 59 -105 146 -105 234 0 102 42 159 164 220
l60 30 0 -92 c1 -217 29 -299 104 -314 43 -8 109 20 154 66 l33 33 -3 239 c-3
224 -4 241 -22 254 -11 8 -32 14 -48 14 -22 0 -28 4 -28 23 0 39 14 46 115 62
55 8 116 19 135 24 19 4 38 6 43 4 4 -2 7 -147 7 -321z m-4151 307 c73 -15
151 -73 181 -134 25 -50 25 -51 22 -283 -2 -128 0 -246 3 -263 8 -36 52 -59
112 -59 l37 0 -30 -31 c-37 -39 -84 -59 -159 -66 -55 -5 -63 -3 -92 21 -17 15
-37 42 -43 61 -14 42 -19 43 -50 10 -13 -14 -47 -40 -74 -58 -47 -30 -57 -32
-137 -32 -79 0 -89 2 -129 30 -64 45 -93 95 -98 171 -6 88 19 137 95 187 51
34 114 57 323 119 l45 13 -3 75 c-6 125 -55 176 -159 166 -29 -2 -56 -7 -61
-10 -5 -3 -5 -28 -1 -58 11 -68 6 -83 -39 -113 -46 -31 -99 -33 -136 -4 -37
29 -37 107 0 157 62 81 255 131 393 101z m2638 -336 c0 -192 3 -358 7 -370 6
-19 60 -53 85 -53 16 0 13 -15 -6 -38 -16 -18 -34 -21 -152 -25 l-134 -6 6 60
c3 36 1 59 -5 59 -6 0 -32 -20 -59 -44 -52 -47 -110 -71 -194 -82 -70 -8 -124
8 -167 53 -68 69 -71 88 -74 371 -2 289 -3 294 -79 313 -50 13 -58 20 -49 42
8 22 23 26 142 37 59 5 123 12 143 16 l36 6 7 -303 c6 -258 10 -310 25 -344
25 -55 46 -70 100 -69 52 1 91 18 139 63 l32 30 0 244 c0 267 3 256 -62 276
-80 26 -63 44 62 70 52 11 106 24 120 30 14 5 37 10 51 10 l26 1 0 -347z
m1036 267 c10 -125 -6 -159 -91 -188 -42 -14 -88 2 -120 43 -26 32 -27 53 -8
99 15 35 59 67 134 97 76 30 78 28 85 -51z m-3963 -1290 c70 -148 72 -160 24
-160 -16 0 -23 8 -27 30 -6 26 -11 30 -39 30 -18 0 -50 3 -70 6 -35 6 -37 5
-52 -30 -12 -28 -21 -36 -40 -36 -15 0 -26 6 -26 13 0 19 112 275 127 290 19
20 40 -9 103 -143z m319 136 c15 -8 33 -22 41 -31 11 -13 11 -19 -3 -32 -13
-14 -21 -14 -42 -5 -45 21 -84 15 -117 -18 -26 -27 -29 -35 -24 -68 9 -50 46
-82 95 -82 22 0 44 6 51 15 15 18 15 18 -25 31 -31 10 -41 30 -26 52 6 10 23
12 67 7 l59 -7 -3 -58 c-4 -66 -20 -87 -76 -100 -59 -13 -120 6 -160 50 -38
42 -61 108 -50 143 3 12 18 35 33 51 58 63 121 82 180 52z m370 -132 c33 -80
61 -150 61 -155 0 -5 -13 -9 -30 -9 -22 0 -30 5 -30 18 0 31 -22 42 -85 42
-58 0 -61 -1 -72 -30 -10 -26 -17 -30 -47 -30 l-35 0 14 41 c9 23 31 72 50
108 19 36 44 87 55 114 33 81 48 69 119 -99z m176 47 c23 -52 46 -96 51 -98
12 -4 54 84 75 155 10 33 17 42 35 42 13 0 26 -4 29 -10 13 -21 -96 -287 -126
-305 -20 -13 -55 38 -106 155 -72 166 -72 162 -32 158 32 -3 36 -7 74 -97z
m377 82 c23 -26 78 -139 104 -213 17 -47 20 -68 12 -77 -19 -23 -39 -14 -54
25 l-15 37 -65 2 -64 3 -17 -35 c-12 -26 -23 -35 -41 -35 -21 0 -23 3 -18 27
4 14 29 74 55 132 27 58 52 116 55 129 9 26 27 28 48 5z m947 -9 c55 -46 31
-78 -37 -51 -32 13 -42 13 -70 1 -61 -25 -75 -114 -24 -154 34 -27 98 -27 112
0 11 20 8 24 -21 21 -25 -3 -42 25 -35 55 6 21 11 25 29 19 12 -4 37 -9 55
-12 32 -5 32 -6 32 -60 0 -77 -27 -103 -107 -103 -99 0 -163 60 -163 153 0
116 147 200 229 131z m201 -131 l0 -153 -30 0 -30 0 0 153 0 152 30 0 30 0 0
-152z m335 121 c0 -28 -2 -29 -47 -32 l-48 -3 7 -120 6 -121 -29 4 -29 3 -3
119 -3 118 -49 -4 -50 -5 0 38 0 38 123 -3 122 -2 0 -30z m261 -115 c41 -83
74 -153 72 -154 -2 -2 -21 -5 -43 -7 -39 -3 -40 -2 -45 32 -4 28 -9 35 -27 34
-117 -3 -113 -2 -124 -34 -9 -24 -17 -30 -41 -30 -28 0 -29 2 -23 31 7 32 101
245 118 267 22 28 40 6 113 -139z m-3700 126 c12 -8 27 -27 33 -44 11 -25 10
-33 -5 -56 -18 -27 -17 -28 4 -45 33 -27 28 -66 -12 -106 -33 -33 -36 -34
-120 -34 -47 0 -86 3 -87 8 0 4 -2 71 -4 150 l-5 142 88 0 c61 0 94 -4 108
-15z m204 -45 l0 -60 48 0 c84 0 92 6 92 60 0 34 4 50 16 54 43 16 44 13 44
-144 l0 -150 -30 0 -30 0 0 63 0 62 -73 0 -72 0 3 -62 c3 -60 2 -63 -23 -69
-14 -3 -29 -3 -33 0 -3 4 -7 74 -7 156 l-2 150 34 0 33 0 0 -60z m2177 25 c73
-63 81 -154 19 -214 -39 -38 -81 -51 -163 -51 l-63 0 0 83 c0 45 -3 112 -7
150 l-6 67 90 0 c88 0 90 -1 130 -35z m-2807 -125 l0 -30 -539 0 c-338 0 -550
4 -566 10 -35 13 -27 33 16 41 19 4 271 7 562 8 l527 1 0 -30z m5435 5 c0 -18
-9 -21 -80 -27 -44 -3 -271 -7 -505 -8 l-425 -1 -3 22 c-2 12 2 26 10 30 7 5
236 8 508 6 488 -2 495 -2 495 -22z"/>
<path d="M5184 8361 c-220 -100 -232 -392 -20 -492 104 -49 199 -34 294 46 48
40 82 118 82 188 0 71 -17 111 -79 179 -80 90 -186 120 -277 79z m165 -128
c55 -42 78 -133 48 -193 -15 -31 -90 -70 -135 -70 -75 0 -134 64 -134 145 0
61 28 105 82 133 53 26 88 23 139 -15z"/>
<path d="M4710 7068 c-12 -22 -12 -22 6 -6 10 10 15 20 12 24 -4 3 -12 -5 -18
-18z"/>
<path d="M6511 7114 c0 -11 3 -14 6 -6 3 7 2 16 -1 19 -3 4 -6 -2 -5 -13z"/>
<path d="M6035 6277 c-15 -21 -26 -40 -23 -42 8 -8 60 53 56 66 -2 7 -16 -2
-33 -24z"/>
<path d="M3565 7118 c14 -24 68 -128 119 -233 107 -221 157 -308 229 -404 55
-73 171 -183 228 -215 41 -24 45 -30 -88 126 -97 114 -138 178 -223 348 -92
184 -162 301 -218 361 -64 69 -84 76 -47 17z"/>
<path d="M3620 6502 c0 -10 44 -75 89 -132 138 -174 253 -270 526 -435 160
-97 242 -135 309 -142 47 -5 50 -4 35 11 -8 9 -73 47 -145 84 -153 80 -392
232 -488 310 -38 31 -107 101 -155 156 -47 56 -99 113 -115 128 -27 27 -56 37
-56 20z"/>
<path d="M6980 7123 c-52 -58 -91 -126 -183 -313 -92 -187 -161 -288 -299
-437 -49 -53 -75 -89 -72 -98 4 -8 11 -12 18 -8 125 70 305 303 411 533 32 69
84 178 116 243 33 64 55 117 50 117 -5 0 -23 -17 -41 -37z"/>
<path d="M6780 6346 c-161 -159 -172 -168 -415 -328 -137 -90 -267 -175 -288
-187 -21 -13 -36 -25 -34 -28 12 -11 100 24 192 75 237 132 412 259 551 397
83 82 184 207 184 227 0 25 -42 -9 -190 -156z"/>
<path d="M5262 6863 c-9 -22 -6 -906 3 -1060 7 -112 16 -139 29 -85 4 15 10
276 13 579 4 436 3 556 -7 568 -16 20 -29 19 -38 -2z"/>
<path d="M5637 6483 c6 -171 -5 -251 -53 -402 -32 -100 -108 -253 -145 -292
-16 -17 -29 -33 -29 -36 0 -2 19 6 41 19 67 37 147 174 195 335 23 75 27 112
32 254 4 174 -8 279 -33 279 -11 0 -12 -30 -8 -157z"/>
<path d="M5456 6568 c-3 -18 -7 -112 -9 -208 -4 -138 -10 -202 -31 -304 -14
-71 -24 -131 -21 -134 9 -10 65 128 79 196 27 125 35 245 25 348 -5 54 -11
106 -15 116 -9 28 -23 21 -28 -14z"/>
<path d="M5073 6553 c-16 -23 -18 -51 -18 -203 1 -194 19 -294 75 -415 37 -78
37 -53 3 123 -22 117 -26 164 -27 330 -1 105 -4 192 -8 192 -4 0 -16 -12 -25
-27z"/>
<path d="M2814 6211 c4 -5 35 -25 70 -45 35 -20 110 -71 166 -113 250 -192
357 -256 490 -296 130 -40 288 -62 291 -42 1 6 -82 38 -184 71 -211 70 -359
143 -482 239 -99 76 -182 129 -260 167 -59 28 -102 37 -91 19z"/>
<path d="M7633 6177 c-45 -23 -108 -61 -140 -85 -154 -114 -350 -221 -562
-306 -60 -24 -120 -51 -133 -61 -22 -16 -22 -17 35 -10 195 22 475 162 667
331 36 32 102 81 148 111 76 49 93 64 75 62 -5 0 -45 -19 -90 -42z"/>
<path d="M5380 5113 c0 -13 5 -23 10 -23 13 0 13 11 0 30 -8 12 -10 11 -10 -7z"/>
<path d="M4464 2716 c-118 -44 -156 -89 -158 -189 -1 -54 1 -61 33 -89 30 -27
39 -30 82 -26 34 4 59 14 88 37 40 32 41 34 41 94 0 34 3 92 7 130 7 79 5 80
-93 43z"/>
<path d="M4156 1788 c-23 -53 -21 -58 24 -58 22 0 40 3 40 8 0 4 -11 25 -24
47 l-25 40 -15 -37z"/>
<path d="M4846 1771 c-9 -23 -16 -44 -16 -46 0 -3 16 -5 36 -5 36 0 36 1 30
32 -4 18 -12 39 -20 46 -11 11 -16 7 -30 -27z"/>
<path d="M5460 1783 c-8 -21 -16 -41 -18 -45 -2 -5 17 -8 41 -8 42 0 45 2 39
23 -8 25 -34 67 -42 67 -3 0 -12 -17 -20 -37z"/>
<path d="M7128 1765 l-17 -45 32 0 c53 0 63 13 41 51 -27 46 -37 45 -56 -6z"/>
<path d="M3410 1826 c0 -17 7 -26 25 -30 33 -8 72 2 79 21 10 25 -3 33 -55 33
-45 0 -49 -2 -49 -24z"/>
<path d="M3415 1720 c-10 -31 12 -50 56 -50 41 0 72 22 67 49 -2 12 -17 17
-60 19 -50 3 -57 1 -63 -18z"/>
<path d="M5770 1761 l0 -91 34 0 c73 0 115 31 116 87 0 51 -36 85 -98 91 l-52
5 0 -92z"/>
</g>
</svg>
